<svg xmlns="http://www.w3.org/2000/svg" fill="none" viewBox="0 0 24 24" id="Behance--Streamline-Svg-Logos" height="24" width="24"><desc>Behance Streamline Icon: https://streamlinehq.com</desc><path fill="#0a0b09" d="M2.192795 13.367325c0.092715 0 0.18073 -0.008275 0.2635575 -0.02675 0.0839725 -0.018475 0.1585225 -0.0475 0.2214225 -0.0906 0.062875 -0.041325 0.1149 -0.098075 0.15285 -0.17035 0.037925 -0.0715 0.056075 -0.164375 0.056075 -0.2767 0 -0.21995 -0.061925 -0.3762 -0.18495 -0.471025 -0.12335 -0.093525 -0.287865 -0.14005 -0.4901525 -0.14005H1.18979v1.175475h1.003005Zm-0.0518675 -1.817025c0.166465 0 0.30424 -0.03955 0.4134975 -0.119775 0.1081 -0.078775 0.160625 -0.20925 0.160625 -0.3882 0 -0.0992 -0.0175 -0.181375 -0.052525 -0.245075 -0.03615 -0.0637 -0.084125 -0.113625 -0.14475 -0.148475 -0.060125 -0.036325 -0.12804 -0.061425 -0.2069775 -0.0749 -0.0773175 -0.015225 -0.1585225 -0.02105 -0.241675 -0.02105H1.18979v0.997475h0.9511375Zm0.1215675 -1.724625c0.20407 0 0.388355 0.017675 0.55678 0.05415 0.167425 0.0355 0.3104 0.094825 0.43115 0.176175 0.118975 0.081225 0.212025 0.189325 0.278625 0.325475 0.065 0.134225 0.09775 0.30215 0.09775 0.500875 0 0.214925 -0.0488 0.39435 -0.146375 0.5378 -0.098225 0.143275 -0.24265 0.2608 -0.435525 0.35205 0.26275 0.07555 0.45725 0.208625 0.586275 0.3976 0.129675 0.1903 0.19305 0.4182 0.19305 0.68515 0 0.21655 -0.0415 0.4028 -0.124175 0.55955 -0.083625 0.158675 -0.197425 0.287375 -0.337625 0.386575 -0.14135 0.100175 -0.30375 0.1736 -0.485625 0.2214 -0.1799 0.047825 -0.366625 0.071825 -0.5579 0.071825H0.25V9.825675h2.012495Z" stroke-width="0.25"></path><path fill="#0a0b09" d="M6.139425 11.7293c-0.100975 -0.111675 -0.271825 -0.17215 -0.480275 -0.17215 -0.135675 0 -0.248 0.022875 -0.3378 0.069375 -0.08785 0.045875 -0.159975 0.1031 -0.214925 0.170375 -0.054775 0.0684 -0.092225 0.140525 -0.11395 0.217675 -0.0217 0.0752 -0.034675 0.14345 -0.038725 0.20375h1.381325c-0.020275 -0.21655 -0.09435 -0.37655 -0.19565 -0.489025Zm-0.97545 1.6238c0.127075 0.12415 0.310875 0.186725 0.549 0.186725 0.17115 0 0.31915 -0.043275 0.4433 -0.129675 0.123025 -0.08605 0.197925 -0.1783 0.226925 -0.273925h0.74755c-0.1201 0.372 -0.30245 0.63765 -0.55125 0.797475 -0.245725 0.160625 -0.5456 0.2407 -0.8949 0.2407 -0.24345 0 -0.4626 -0.03955 -0.659225 -0.117025 -0.1966 -0.0786 -0.36095 -0.188825 -0.499225 -0.33245 -0.1347 -0.14425 -0.23925 -0.314775 -0.3138 -0.51495 -0.07375 -0.1992 -0.111025 -0.4198 -0.111025 -0.6589 0 -0.231125 0.038725 -0.447025 0.1141 -0.64655 0.07715 -0.2002 0.18365 -0.372975 0.3237 -0.517875 0.140525 -0.145725 0.307 -0.26065 0.50085 -0.3446 0.194025 -0.0838 0.407825 -0.1258 0.644625 -0.1258 0.26145 0 0.490475 0.05025 0.686775 0.15285 0.19565 0.101 0.35595 0.23795 0.48205 0.40945 0.12595 0.171325 0.215575 0.367125 0.27165 0.5866 0.05545 0.2193 0.07505 0.448325 0.059 0.688225H4.95375c0 0.244275 0.08265 0.475575 0.210225 0.599725Z" stroke-width="0.25"></path><path fill="#0a0b09" d="M8.389975 9.825675v1.60955h0.01945c0.1078 -0.1791 0.2441 -0.309275 0.4117 -0.389975 0.167275 -0.081375 0.3305 -0.121575 0.489525 -0.121575 0.22675 0 0.4125 0.029825 0.557575 0.09125 0.145225 0.062575 0.26015 0.147175 0.344275 0.25725 0.0825 0.10955 0.14085 0.243275 0.175075 0.400825 0.03355 0.157225 0.050875 0.330675 0.050875 0.521925v1.899375h-0.853075v-1.745225c0 -0.254475 -0.0397 -0.44575 -0.1188 -0.570875 -0.07925 -0.1253 -0.21995 -0.188175 -0.4229 -0.188175 -0.2295 0 -0.395475 0.069525 -0.49825 0.206825 -0.1047 0.137275 -0.15545 0.363225 -0.15545 0.6777v1.61975h-0.85275V9.825675h0.85275Z" stroke-width="0.25"></path><path fill="#0a0b09" d="M12.715475 12.65855c-0.05285 0.0175 -0.11135 0.03225 -0.17165 0.04505 -0.06225 0.01185 -0.12725 0.0214 -0.194675 0.029825 -0.066775 0.008125 -0.1355 0.01735 -0.202125 0.02935 -0.06355 0.012475 -0.127075 0.02805 -0.18755 0.0483 -0.061575 0.0201 -0.11555 0.04685 -0.159975 0.08055 -0.046025 0.0342 -0.08265 0.077 -0.1107 0.128375 -0.027225 0.05155 -0.041825 0.1185 -0.041825 0.1976 0 0.075525 0.0146 0.139225 0.041825 0.191575 0.02805 0.051875 0.064675 0.0924 0.1128 0.122375 0.048 0.03 0.104225 0.051075 0.1668 0.06275 0.06355 0.012625 0.129175 0.017325 0.19645 0.017325 0.16695 0 0.29565 -0.0277 0.3874 -0.0833 0.09125 -0.055925 0.159975 -0.1227 0.202925 -0.2005 0.043775 -0.0778 0.0702 -0.15625 0.078775 -0.23535 0.0112 -0.0796 0.016225 -0.143775 0.016225 -0.191925v-0.317525c-0.0368 0.032575 -0.080075 0.0577 -0.1347 0.075525Zm-1.670975 -1.2027c0.0864 -0.13145 0.19775 -0.23795 0.33325 -0.317525 0.1355 -0.0804 0.2869 -0.136975 0.4571 -0.17085 0.169525 -0.03485 0.339075 -0.051225 0.511225 -0.051225 0.1548 0 0.311375 0.0107 0.47265 0.03275 0.158675 0.021875 0.30375 0.064825 0.435375 0.12885 0.13145 0.06435 0.238575 0.152375 0.321575 0.2673 0.084125 0.112 0.12675 0.263725 0.12675 0.45175v1.610825c0 0.14005 0.008425 0.273125 0.02335 0.400525 0.01685 0.128525 0.06045 0.224975 0.101625 0.2882l-0.867175 -0.002125c-0.02545 -0.03695 -0.046525 -0.094825 -0.0564 -0.145225 -0.01005 -0.049275 -0.017025 -0.1 -0.020925 -0.152025 -0.135025 0.1397 -0.293375 0.237925 -0.477825 0.294025 -0.183 0.055275 -0.369575 0.0833 -0.56115 0.0833 -0.14685 0 -0.283675 -0.018625 -0.411725 -0.054625 -0.1261 -0.035975 -0.2381 -0.091725 -0.333575 -0.1671 -0.09595 -0.076825 -0.1697 -0.17215 -0.223525 -0.28755 -0.053475 -0.11605 -0.081025 -0.25415 -0.081025 -0.41365 0 -0.176025 0.0316 -0.32095 0.094 -0.4344 0.060775 -0.113475 0.139725 -0.204725 0.238425 -0.2723 0.0971 -0.068075 0.208625 -0.1193 0.334875 -0.1527 0.12515 -0.0337 0.252225 -0.0616 0.378175 -0.0812 0.127875 -0.019625 0.25235 -0.0355 0.376675 -0.047825 0.12465 -0.01215 0.2326 -0.0295 0.32905 -0.0538 0.09515 -0.023675 0.171325 -0.05965 0.22725 -0.1052 0.05495 -0.045725 0.081375 -0.112175 0.07765 -0.200675 0 -0.091425 -0.016225 -0.16435 -0.04555 -0.218825 -0.0295 -0.05365 -0.069375 -0.094975 -0.118175 -0.125125 -0.050075 -0.03015 -0.1065 -0.049925 -0.171475 -0.06045 -0.06615 -0.009575 -0.136175 -0.014925 -0.2109 -0.014925 -0.166125 0 -0.297575 0.036975 -0.390775 0.10795 -0.0958 0.0731 -0.150925 0.193375 -0.167925 0.3613H10.89375c0.012325 -0.2005 0.0616 -0.366 0.15075 -0.49745Z" stroke-width="0.25"></path><path fill="#0a0b09" d="M14.975725 11.0043v0.430825h0.01895c0.107475 -0.1791 0.24605 -0.30925 0.4182 -0.389975 0.170675 -0.081375 0.3475 -0.121575 0.526775 -0.121575 0.22775 0 0.414625 0.029825 0.55905 0.091275 0.147025 0.06255 0.261275 0.147175 0.344125 0.257225 0.084925 0.109575 0.143275 0.2433 0.177325 0.40085 0.03435 0.157225 0.051375 0.33065 0.051375 0.521925v1.89935h-0.8534V12.349c0 -0.254475 -0.040025 -0.44575 -0.119625 -0.570875 -0.080725 -0.1253 -0.21995 -0.2057 -0.42435 -0.2057 -0.230975 0 -0.399225 0.08705 -0.502625 0.224325 -0.104075 0.1373 -0.155625 0.36325 -0.155625 0.6777v1.61975H14.17175V11.0043h0.803975Z" stroke-width="0.25"></path><path fill="#0a0b09" d="M18.960425 11.55715c-0.136475 0 -0.249125 0.03015 -0.339725 0.092725 -0.09255 0.0624 -0.1681 0.1415 -0.2258 0.239575 -0.057875 0.0974 -0.0979 0.2052 -0.1227 0.3232 -0.023175 0.117825 -0.03615 0.23455 -0.03615 0.3506 0 0.11215 0.012975 0.225775 0.03615 0.34185 0.0248 0.1154 0.0629 0.219625 0.1167 0.3146 0.054625 0.09305 0.12725 0.16955 0.218975 0.23 0.091275 0.06015 0.2023 0.090125 0.334075 0.090125 0.2044 0 0.360975 -0.05705 0.4707 -0.170025 0.10925 -0.113625 0.17685 -0.266325 0.205375 -0.457575h0.81985c-0.05625 0.409925 -0.21575 0.723075 -0.478175 0.938975 -0.2634 0.21445 -0.6007 0.3232 -1.011425 0.3232 -0.232125 0 -0.443 -0.03955 -0.6375 -0.117025 -0.194175 -0.0786 -0.359025 -0.186875 -0.49485 -0.3266 -0.135825 -0.14005 -0.2412 -0.306525 -0.31835 -0.50005 -0.075375 -0.19385 -0.1133 -0.406675 -0.1133 -0.63765 0 -0.23925 0.035175 -0.462125 0.105025 -0.668125 0.06955 -0.205225 0.1723 -0.383025 0.309275 -0.53215 0.135675 -0.1501 0.30165 -0.2668 0.49795 -0.35075 0.195475 -0.0838 0.418825 -0.1258 0.669575 -0.1258 0.183475 0 0.359675 0.0248 0.529875 0.071175 0.1689 0.047325 0.320775 0.120425 0.454 0.218475 0.133575 0.097425 0.242975 0.218825 0.326775 0.363575 0.082825 0.14475 0.13015 0.318175 0.1433 0.516425h-0.8325c-0.0551 -0.352725 -0.2642 -0.52875 -0.627125 -0.52875Z" stroke-width="0.25"></path><path fill="#0a0b09" d="M4.78015 10.11205h1.7303v0.421275h-1.7303v-0.421275Z" stroke-width="0.25"></path><path fill="#0a0b09" d="M22.70025 11.7293c-0.102275 -0.111675 -0.274425 -0.17215 -0.480275 -0.17215 -0.1355 0 -0.24815 0.022875 -0.339575 0.069375 -0.088 0.045875 -0.1684 0.1031 -0.222375 0.170375 -0.053975 0.0684 -0.092725 0.140525 -0.11525 0.217675 -0.0201 0.0752 -0.0342 0.14345 -0.037925 0.20375h1.3917c-0.0227 -0.21655 -0.095 -0.37655 -0.1963 -0.489025Zm-0.985975 1.6238c0.12755 0.12415 0.320125 0.186725 0.56 0.186725 0.17085 0 0.318525 -0.043275 0.441875 -0.129675 0.123325 -0.08605 0.19985 -0.1783 0.227075 -0.273925h0.74755c-0.11945 0.372 -0.30295 0.63765 -0.550125 0.797475 -0.2467 0.160625 -0.545275 0.2407 -0.895875 0.2407 -0.2441 0 -0.46405 -0.03955 -0.6592 -0.117025 -0.1963 -0.0786 -0.360825 -0.188825 -0.498425 -0.33245 -0.13615 -0.14425 -0.24055 -0.314775 -0.314775 -0.51495 -0.07375 -0.1992 -0.1104 -0.4198 -0.1104 -0.6589 0 -0.231125 0.03795 -0.447025 0.113475 -0.64655 0.0765 -0.2002 0.185275 -0.372975 0.3245 -0.517875 0.141175 -0.145725 0.306175 -0.26065 0.49955 -0.3446 0.1942 -0.0838 0.409775 -0.1258 0.645275 -0.1258 0.261125 0 0.491125 0.05025 0.685475 0.15285 0.196125 0.101 0.35725 0.23795 0.482375 0.40945 0.12595 0.171325 0.21655 0.367125 0.27215 0.5866 0.0548 0.2193 0.07585 0.448325 0.06015 0.688225h-2.240075c0 0.244275 0.081525 0.475575 0.209425 0.599725Z" stroke-width="0.25"></path></svg>