<?xml version="1.0" encoding="UTF-8"?>
<svg id="OBJECTS" xmlns="http://www.w3.org/2000/svg" version="1.1" viewBox="0 0 500 500">
  <!-- Generator: Adobe Illustrator 29.0.0, SVG Export Plug-In . SVG Version: 2.1.0 Build 186)  -->
  <defs>
    <style>
      .st0 {
        opacity: .3;
      }

      .st1 {
        fill: #434244;
      }

      .st2 {
        opacity: .8;
      }

      .st3, .st4 {
        fill: #272525;
      }

      .st5 {
        fill: #fff;
      }

      .st6 {
        fill: #084470;
      }

      .st7 {
        fill: #0074c3;
      }

      .st8 {
        isolation: isolate;
      }

      .st9 {
        fill: #064777;
      }

      .st4 {
        fill-rule: evenodd;
      }

      .st10 {
        fill: #03283f;
      }
    </style>
  </defs>
  <g class="st2">
    <path class="st1" d="M118,350.6c-.9,0-1.7-.3-2.4-1-1-1-1.3-2.6-.7-3.9l17.8-36.5c-14-6.1-25.8-14.5-34.1-24.4-8.7-10.5-13.4-22.5-13.6-34.7-.1-8.3,1.8-16.4,5.7-24.2,3.8-7.5,9.3-14.4,16.4-20.7,14.1-12.4,33.9-21.4,55.8-25.3,17.2-30,58.1-50.5,104.2-52.4,30.9-1.3,60.3,5.8,82.7,20,11,6.9,19.7,15.1,25.9,24.4,6.5,9.7,10,20.1,10.4,30.9h0c.6,13.8-4,27.5-13.2,39.8-8.7,11.7-21.5,21.9-37,29.6l23.6,42.4c.6,1.1.5,2.4-.4,3.3-.8.9-2.1,1.2-3.2.7l-73-31.7c-3,.3-6.2.5-9.4.6h-.3c-18.9,19.8-50.6,31.8-84.7,32.3-2.9,0-5.7,0-8.4-.1l-61,30.4c-.5.2-1,.4-1.5.4ZM274.2,129c-2.3,0-4.6,0-6.9.1-22.8.9-44.7,6.5-63.1,16-18,9.2-31.8,21.7-39.9,36l-.2.3h-.4c-21.8,3.9-41.5,12.8-55.4,25.1-6.9,6.1-12.3,12.9-16,20.2-3.8,7.5-5.6,15.4-5.5,23.4.2,11.8,4.7,23.5,13.2,33.6,8.3,9.9,20.1,18.3,34.2,24.3l.7.3-.4,1.1-18.1,37.1c-.4.8,0,1.6.3,2,.4.4,1.2.7,2,.3l62.4-31.2v.6c2.5,0,5,.1,7.6,0,33.8-.4,65.1-12.4,83.7-32l.2-.2h1c3-.2,5.9-.4,8.7-.6v-.6s74.5,32.3,74.5,32.3c.6.2,1.1,0,1.3-.3.3-.3.5-.8.2-1.3l-23.9-43-.4-1,.7-.3c15.6-7.6,28.4-17.8,37.1-29.5,9-12,13.4-25.4,12.9-38.8h0c-1.7-41.7-50.7-73.9-110.5-73.9Z"/>
  </g>
  <g>
    <path class="st5" d="M408.3,221.3c-1.8-43.8-60-77.1-123.5-74.5-47.4,1.9-87.3,23.4-103.8,52.4-44.9,7.9-78.1,36.2-77.6,69.4.3,24.9,16.1,52,45.9,63l2-4-18.1,37.1c0,1.1,4.5,7,4.5,7l68.7-34c35.3-.4,66.2-13.2,84.3-32.2.2,0,.4,0,.7,0,3.2-.1,4.6,13.2,7.8,12.9l9.3,2.4,72.6,22.6c1.7.8-.2-5.4-1.2-7.1l-27.1-45.5v-.3c31.3-15.4,56.7-41,55.6-69.1Z"/>
    <path class="st1" d="M136.4,372.7c-4.9-6.4-4.9-7.6-4.8-8.1v-.3s15.5-31.7,15.5-31.7c-13.6-5.4-25-14.4-33.1-26.2-7.7-11.2-12-24.6-12.2-37.6-.1-8.4,1.8-16.7,5.8-24.5,3.8-7.6,9.4-14.6,16.6-21,14.1-12.5,33.9-21.5,55.9-25.5,17.5-30,58.5-50.6,104.7-52.5,15.7-.6,31.3.8,46.3,4.4,14.6,3.5,27.9,8.7,39.5,15.7,11.8,7,21.2,15.3,28,24.6,7.1,9.8,11,20.4,11.4,31.4.6,13.6-5,27.6-16,40.5-9.6,11.3-23.1,21.4-39,29.4l26.4,44.2c.5.9,1.1,2.6,1.6,4.1.7,2.6.7,4,0,4.8-.5.5-1.3.9-2.3.5l-72.5-22.6-9.1-2.3c-2.6,0-3.9-3.7-5.2-7.5-.6-1.6-1.6-4.6-2.3-5.3-19.1,19.7-50.8,31.7-85,32.2v-3.3c33.6-.4,64.6-12.3,83.1-31.7l.5-.5h1.3c2.8-.2,4.2,3.6,5.5,7.6.6,1.6,1.6,4.6,2.3,5.2h0s9.7,2.4,9.7,2.4l71,22.1c-.3-1.4-.9-3.2-1.4-4.1l-27.2-45.5-.8-1.8,1.4-.7c16.2-7.9,29.9-18.1,39.5-29.4,10.5-12.3,15.8-25.5,15.2-38.2-.4-10.3-4.1-20.3-10.8-29.6-6.5-9-15.6-16.9-27-23.7-11.4-6.7-24.3-11.9-38.6-15.3-14.7-3.5-30-5-45.4-4.3-22.7.9-44.4,6.4-62.8,15.9-17.9,9.2-31.5,21.5-39.6,35.6l-.4.7h-.8c-21.6,3.9-41.2,12.8-55,25-6.9,6.1-12.2,12.8-15.8,20-3.7,7.4-5.6,15.1-5.5,23,.2,12.4,4.3,25.1,11.6,35.8,7.8,11.3,18.7,20,31.8,25.1l1.3-2.7,3,1.5-17.8,36.5c.6,1.1,2.4,3.7,4,5.9l-2.6,2ZM291.4,307h0,0Z"/>
  </g>
  <g>
    <path class="st5" d="M408.3,227.4c-1.8-43.8-54.7-77.2-118.2-74.6-47.4,1.9-87.3,23.4-103.8,52.3-44.9,7.9-78.1,36.2-77.6,69.4.3,24.9,19.4,46.6,47.9,58.7v.2c0,0-18.2,37.1-18.2,37.1-1,1.6,1.2,4.5,3.4,3.4l61.3-30.6h0c2.8.2,5.6.2,8.4.2,35.3-.4,66.2-13.2,84.3-32.2.2,0,.4,0,.7,0,3.2-.1,6.4-.3,9.5-.7h0c0,0,73.3,31.7,73.3,31.7,1.7.8,3.5-1.1,2.5-2.8l-23.9-43v-.3c31.3-15.4,51.5-40.9,50.4-69Z"/>
    <path class="st1" d="M140.9,375.9c-1.1,0-2.2-.5-3.1-1.4-1.3-1.4-1.6-3.3-.8-4.6l17.4-35.7c-13.8-6.1-25.4-14.5-33.6-24.3-8.9-10.6-13.6-22.8-13.8-35.2-.1-8.4,1.8-16.7,5.8-24.5,3.8-7.6,9.4-14.6,16.6-21,14.1-12.5,33.9-21.5,55.9-25.5,17.5-30,58.5-50.6,104.7-52.5,31.1-1.3,60.6,5.9,83.2,20.2,11.1,7,19.9,15.3,26.2,24.7,6.6,9.8,10.1,20.3,10.6,31.3.6,13.9-4,27.9-13.3,40.4-8.7,11.6-21.3,21.8-36.5,29.5l23.2,41.7c.8,1.4.6,3.1-.5,4.2-1.1,1.2-2.7,1.5-4.2.9l-72.8-31.6c-3,.3-6.1.5-9.3.6h0c-19.1,19.8-50.8,31.8-85,32.3-2.8,0-5.6,0-8.2-.1l-60.8,30.3c-.6.3-1.1.4-1.7.4ZM139.8,371.5c0,.2.1.6.6.9.4.3.6.2.7.1l63.6-31.8v1.1c2.2,0,4.5,0,6.8,0,33.6-.4,64.7-12.3,83.1-31.7l.5-.5h1.3c2.7-.2,5.3-.3,7.9-.6v-1.1s75.6,32.8,75.6,32.8c0,0,.2,0,.4,0,.2-.2,0-.3,0-.4l-24-43-.8-1.8,1.4-.7c15.5-7.6,28.2-17.7,36.8-29.3,8.8-11.8,13.2-25.1,12.7-38.2h0c-1.8-42.8-54-75.5-116.5-73-22.7.9-44.4,6.4-62.8,15.9-17.9,9.2-31.5,21.5-39.6,35.6l-.4.7h-.8c-21.6,3.9-41.2,12.8-55,25-6.9,6.1-12.2,12.8-15.8,20-3.7,7.4-5.6,15.1-5.5,23,.1,11.6,4.6,23.1,13,33.1,8.2,9.8,19.9,18.1,33.9,24.1l1.4.6-.7,1.9-18.1,37.1h0Z"/>
  </g>
  <g class="st8">
    <g>
      <path class="st5" d="M356.2,209.1c-5.2,0-10.2,4.3-11.1,9.8-.9,5.5,2.6,10.1,7.9,10.2,5.2,0,10.2-4.3,11.1-9.8.9-5.5-2.6-10.1-7.9-10.2Z"/>
      <path class="st1" d="M356.5,207c-6.4-.1-12.4,5.3-13.5,12-1.1,6.7,3.2,12.2,9.6,12.4,6.4.1,12.4-5.3,13.5-12,1.1-6.7-3.2-12.2-9.6-12.4ZM364.1,219.3c-.9,5.5-5.8,9.9-11.1,9.8-5.2,0-8.7-4.6-7.9-10.2.9-5.5,5.8-9.9,11.1-9.8,5.2,0,8.7,4.6,7.9,10.2Z"/>
    </g>
  </g>
  <g class="st8">
    <g>
      <path class="st5" d="M310,225.4c-5.2,0-10.2,4.3-11.1,9.8-.9,5.5,2.6,10.1,7.9,10.2,5.2,0,10.2-4.3,11.1-9.8.9-5.5-2.6-10.1-7.9-10.2Z"/>
      <path class="st1" d="M310.4,223.3c-6.4-.1-12.4,5.3-13.5,12-1.1,6.7,3.2,12.2,9.6,12.4,6.4.1,12.4-5.3,13.5-12,1.1-6.7-3.2-12.3-9.6-12.4ZM317.9,235.6c-.9,5.5-5.8,9.9-11.1,9.8-5.2,0-8.8-4.6-7.9-10.2.9-5.5,5.8-9.9,11.1-9.8,5.2,0,8.7,4.6,7.9,10.2Z"/>
    </g>
  </g>
  <rect class="st1" x="135" y="363.5" width="3.3" height="11.9" transform="translate(-189.9 149.2) rotate(-35.7)"/>
  <rect class="st1" x="182" y="198.2" width="3.3" height="7.9" transform="translate(-87.4 168.9) rotate(-40.8)"/>
  <g>
    <path class="st6" d="M237.9,219c-56.3.7-105.2,35.9-104.6,72.3.5,29.3,9.6,46.3,47.7,65.8l-14.5,29.6c-.3,1,4.9,9.8,4.3,9.5l51.8-32.8c.4-.2.8-.4,1.2-.6,4-2.1,8.5-3.2,13-3.2,3.4,0,8.6,0,11.3-.2,15-.8,28.9-4.2,42.7-9.9,15.6-6.5,30.4-16.5,40-30.5,6.2-9.1,10-19.8,9.8-30.9-.5-38.8-46.6-69.7-102.9-69Z"/>
    <path class="st10" d="M310.9,237.7c-19.7-13.2-45.6-20.3-73.2-19.9-17.2.2-34.6,3.7-50.3,10.1-15,6.1-28.1,14.6-37.9,24.6-11.8,12.2-17.9,25.6-17.7,39,.3,16.3,3.3,27.5,10,37.3,7.1,10.4,18.7,19.4,37.2,29.1l-13.9,28.5h0c-.2,1,.2,2.2,2.8,7.1.6,1.2,1.4,2.7,1.5,3.1,0-.3,0-.8.4-1.2.4-.3.9-.4,1.4-.2l-1.1,2.5c.2,0,.4.1.6.1.4,0,.7-.2,1-.4.7-.8.3-1.6-.2-2.6-.3-.6-.8-1.5-1.2-2.4-.8-1.5-2.2-4.2-2.5-5.2l14.9-30.4-1.2-.6c-18.9-9.7-30.4-18.5-37.4-28.8-6.4-9.3-9.2-20-9.5-35.8-.2-12.6,5.6-25.4,16.9-37.1,19.9-20.5,52.9-33.4,86.3-33.9,27-.3,52.4,6.6,71.6,19.4,19.1,12.8,29.7,29.9,29.9,48.2.1,10.3-3.2,20.8-9.6,30.1-8.6,12.5-22.2,22.9-39.4,30.1-13.9,5.8-27.7,9-42.2,9.8-2.8.2-8.2.2-11.2.2-4.7,0-9.4,1.2-13.7,3.4-.5.2-.8.4-1.2.6l1.1,2.4c.4-.2.8-.4,1.3-.6,3.9-2,8.2-3.1,12.4-3.1,3,0,8.5,0,11.3-.2,14.8-.8,29-4.1,43.1-10,17.7-7.4,31.7-18.1,40.6-31,6.7-9.8,10.2-20.8,10.1-31.7-.2-19.2-11.3-37.1-31.1-50.4Z"/>
  </g>
  <g>
    <path class="st7" d="M343.6,294.5c-.5-38.8-46.6-69.7-102.9-69-56.3.7-101.6,32.8-101.1,71.6.3,24.9,19.4,46.6,47.9,58.7v.2c0,0-18.2,37.1-18.2,37.1-1.1,2.2,1.2,4.5,3.4,3.4,11.8-5.9,23.5-12.1,35.2-18.1,5.8-2.9,11.6-5.8,17.5-8.5.4-.2.8-.4,1.2-.6,4-2.1,8.5-3.2,13-3.2,3.4,0,8.6,0,11.3-.2,15-.8,28.9-4.2,42.7-9.9,15.6-6.5,30.4-16.5,40-30.5,6.2-9.1,10-19.8,9.8-30.9Z"/>
    <path class="st10" d="M172.2,398.4c-1,0-2.1-.4-2.9-1.2-1.3-1.3-1.6-3.1-.8-4.7l17.5-35.8c-13.8-6.1-25.4-14.5-33.7-24.3-8.8-10.6-13.6-22.7-13.8-35.1-.1-9.8,2.5-19.3,7.9-28.3,5.1-8.6,12.5-16.4,22-23.1,19.4-13.7,45.2-21.5,72.7-21.8,27.6-.4,53.6,6.7,73.3,19.9,9.6,6.5,17.2,14,22.6,22.5,5.6,8.8,8.5,18.3,8.6,28.1.1,10.9-3.4,21.9-10.1,31.8-8.9,12.9-22.9,23.7-40.7,31.1-14.2,5.9-28.3,9.2-43.2,10-2.9.2-8.3.2-11.3.2-4.2,0-8.5,1.1-12.3,3.1-.5.3-.9.5-1.3.6-5.2,2.4-10.7,5.1-17.4,8.5-5.2,2.6-10.5,5.4-15.6,8-6.4,3.3-13.1,6.8-19.7,10.1-.6.3-1.2.4-1.9.4ZM243.2,227.1c-.6,0-1.3,0-1.9,0-55.4.7-100.1,32.1-99.6,70,.1,11.7,4.7,23.1,13,33.2,8.2,9.8,19.9,18.2,34,24.1l1.4.6-.7,1.8-18.1,37.1c-.3.6,0,1,.2,1.1.2.2.6.5,1.1.2,6.6-3.3,13.2-6.7,19.6-10.1,5.1-2.6,10.4-5.4,15.6-8,6.7-3.4,12.3-6.1,17.5-8.5.3-.2.7-.3,1.2-.6,4.3-2.2,9-3.4,13.7-3.4,3,0,8.4,0,11.2-.2,14.5-.8,28.3-4,42.2-9.8,17.2-7.2,30.8-17.5,39.3-30,6.4-9.3,9.7-19.7,9.6-30h0c-.2-18.3-10.8-35.3-29.8-48.1-18.7-12.6-43.4-19.4-69.6-19.4Z"/>
  </g>
  <rect class="st10" x="166.9" y="386.3" width="3.3" height="10.5" transform="translate(-145.8 103.6) rotate(-24.2)"/>
  <rect class="st10" x="180.8" y="355.2" width="7.4" height="2.7" transform="translate(-61.4 39.2) rotate(-10.4)"/>
  <g>
    <g class="st8">
      <g>
        <path class="st9" d="M191.3,291.6c-.4,0-.9,0-1.3,0-3,.3-5.8,1.8-8,4.2-1.9,2-3.1,4.5-3.5,7.1,0,.5-.1,1-.2,1.4-.3,5.9,3.8,10.4,9.3,10.5.4,0,.9,0,1.3,0,3-.3,5.8-1.8,8-4.2,1.9-2,3.1-4.5,3.5-7.1,0-.5.1-1,.2-1.4.3-5.9-3.8-10.4-9.3-10.5Z"/>
        <path class="st10" d="M191.5,290.6c-.5,0-.9,0-1.4,0-3.2.3-6.3,2-8.7,4.6-2,2.1-3.3,4.8-3.8,7.5v.5c-.1.4-.2.8-.2,1.2-.2,3.4.9,6.4,3.1,8.5,1.8,1.8,4.3,2.8,7,2.8.5,0,.9,0,1.4,0,3.2-.3,6.3-2,8.7-4.6,1.8-2,3-4.3,3.6-6.8l.3-2c0-.2,0-.3,0-.5.3-6.4-4.1-11.3-10.1-11.4ZM200.6,302.1c0,.5,0,1-.2,1.4-.4,2.6-1.6,5-3.5,7.1-2.2,2.4-5.1,3.9-8,4.2-.4,0-.9,0-1.3,0-5.5,0-9.6-4.5-9.3-10.5,0-.5,0-1,.2-1.4.4-2.6,1.6-5,3.5-7.1,2.2-2.4,5.1-3.9,8-4.2.4,0,.9,0,1.3,0,5.5,0,9.6,4.5,9.3,10.5Z"/>
      </g>
    </g>
    <g class="st8">
      <g>
        <path class="st5" d="M193.8,293.1c-.4,0-.9,0-1.3,0-3,.3-5.8,1.8-8,4.2-1.9,2-3.1,4.5-3.5,7,0,.5-.1,1-.2,1.4-.3,5.9,3.7,10.3,9.2,10.4.4,0,.9,0,1.3,0,5.7-.6,10.6-5.5,11.5-11.3,0-.4.1-.9.1-1.3.3-5.9-3.7-10.3-9.2-10.4Z"/>
        <path class="st10" d="M201,294.8c-1.9-1.8-4.3-2.8-7-2.9-.5,0-.9,0-1.4,0-3.3.3-6.4,2-8.8,4.6-2,2.2-3.3,4.9-3.8,7.6v.3c-.1.4-.2.9-.2,1.3-.3,6.5,4.1,11.3,10.1,11.4.5,0,.9,0,1.4,0,5.9-.6,11-5.5,12.4-11.3l.3-2.2c0-.1,0-.3,0-.4.2-3.4-.9-6.4-3.1-8.6ZM203,303.4c0,.4,0,.9-.1,1.3-.9,5.8-5.8,10.7-11.5,11.3-.4,0-.9,0-1.3,0-5.5,0-9.5-4.5-9.2-10.4,0-.5,0-1,.2-1.4.4-2.6,1.6-5,3.5-7,2.2-2.4,5-3.9,8-4.2.4,0,.9,0,1.3,0,5.5,0,9.5,4.5,9.2,10.4Z"/>
      </g>
    </g>
  </g>
  <g>
    <g class="st8">
      <g>
        <path class="st9" d="M242.8,287.9c-.4,0-.9,0-1.3,0-3,.3-5.8,1.8-8,4.2-1.9,2-3.1,4.5-3.5,7.1,0,.5-.1,1-.2,1.4-.2,3.1.9,5.9,2.9,7.8,1.7,1.7,3.9,2.6,6.4,2.6.4,0,.9,0,1.3,0,3-.3,5.8-1.8,8-4.2,1.9-2,3.1-4.5,3.5-7.1,0-.5.1-1,.2-1.4.3-5.9-3.8-10.4-9.3-10.5Z"/>
        <path class="st10" d="M249.9,289.8c-1.8-1.8-4.3-2.8-7-2.8-.5,0-.9,0-1.4,0-3.2.3-6.3,2-8.7,4.6-2,2.2-3.3,4.8-3.8,7.6v.4c-.1.4-.2.9-.2,1.3-.2,3.4.9,6.4,3.1,8.5,1.8,1.8,4.3,2.8,7,2.9.5,0,.9,0,1.4,0,3.2-.3,6.3-2,8.7-4.6,1.8-2,3-4.3,3.6-6.7l.3-2c0-.2,0-.3,0-.5.2-3.4-.9-6.4-3.1-8.5ZM252.1,298.4c0,.5,0,1-.2,1.4-.4,2.6-1.6,5-3.5,7.1-2.2,2.4-5.1,3.9-8,4.2-.4,0-.9,0-1.3,0-2.5,0-4.7-1-6.4-2.6-2-2-3-4.7-2.9-7.8,0-.5,0-1,.2-1.4.4-2.6,1.6-5,3.5-7.1,2.2-2.4,5.1-3.9,8-4.2.4,0,.9,0,1.3,0,5.5,0,9.6,4.5,9.3,10.5Z"/>
      </g>
    </g>
    <g class="st8">
      <g>
        <path class="st5" d="M245.3,289.3c-.4,0-.9,0-1.3,0-5.7.6-10.6,5.5-11.5,11.3,0,.4-.1.9-.1,1.3-.3,5.9,3.7,10.3,9.2,10.4.4,0,.9,0,1.3,0,5.7-.6,10.6-5.5,11.5-11.3,0-.4.1-.9.1-1.3.3-5.9-3.7-10.3-9.2-10.4Z"/>
        <path class="st10" d="M252.5,291c-1.9-1.8-4.3-2.8-7-2.9-.5,0-.9,0-1.4,0-6.2.6-11.6,6.1-12.6,12.4h0c0,.5-.1,1-.1,1.5-.3,6.5,4.1,11.3,10.1,11.4.5,0,.9,0,1.4,0,5.9-.6,11-5.5,12.4-11.3l.3-2.2c0-.1,0-.3,0-.4.2-3.4-.9-6.4-3.1-8.6ZM254.5,299.7c0,.4,0,.9-.1,1.3-.9,5.8-5.8,10.7-11.5,11.3-.4,0-.9,0-1.3,0-5.5,0-9.5-4.5-9.2-10.4,0-.4,0-.9.1-1.3.9-5.8,5.8-10.7,11.5-11.3.4,0,.9,0,1.3,0,5.5,0,9.5,4.5,9.2,10.4Z"/>
      </g>
    </g>
  </g>
  <g>
    <g class="st8">
      <g>
        <path class="st9" d="M294.3,284.2c-.4,0-.9,0-1.3,0-3,.3-5.8,1.8-8,4.2-1.9,2-3.1,4.5-3.5,7.1,0,.5-.1,1-.2,1.4-.2,3.1.9,5.9,2.9,7.8,1.7,1.7,3.9,2.6,6.4,2.6.4,0,.9,0,1.3,0,3-.3,5.8-1.8,8-4.2,1.9-2,3.1-4.5,3.5-7.1,0-.5.1-1,.2-1.4.3-5.9-3.8-10.4-9.3-10.5Z"/>
        <path class="st10" d="M301.4,286c-1.8-1.8-4.3-2.8-7-2.9-.5,0-.9,0-1.4,0-3.2.3-6.3,2-8.7,4.6-2,2.2-3.3,4.8-3.8,7.6v.4c-.1.4-.2.9-.2,1.3-.2,3.4.9,6.4,3.1,8.5,1.8,1.8,4.3,2.8,7,2.9.5,0,.9,0,1.4,0,3.2-.3,6.3-2,8.7-4.6,1.8-2,3-4.3,3.6-6.7l.3-2c0-.2,0-.3,0-.5.2-3.4-.9-6.4-3.1-8.5ZM303.6,294.6c0,.5,0,1-.2,1.4-.4,2.6-1.6,5-3.5,7.1-2.2,2.4-5.1,3.9-8,4.2-.4,0-.9,0-1.3,0-2.5,0-4.7-1-6.4-2.6-2-2-3-4.7-2.9-7.8,0-.5,0-1,.2-1.4.4-2.6,1.6-5,3.5-7.1,2.2-2.4,5.1-3.9,8-4.2.4,0,.9,0,1.3,0,5.5,0,9.6,4.5,9.3,10.5Z"/>
      </g>
    </g>
    <g class="st8">
      <g>
        <path class="st5" d="M296.7,285.6c-.4,0-.9,0-1.3,0-3,.3-5.8,1.8-8,4.2-1.9,2-3.1,4.5-3.5,7,0,.5-.1,1-.2,1.4-.2,3.1.9,5.8,2.8,7.8,1.7,1.7,3.9,2.6,6.4,2.6.4,0,.9,0,1.3,0,3-.3,5.8-1.8,8-4.2,1.9-2,3.1-4.5,3.5-7,0-.5.1-1,.2-1.4.3-5.9-3.7-10.3-9.2-10.4Z"/>
        <path class="st10" d="M303.9,287.3c-1.9-1.8-4.3-2.8-7-2.9h0c-.5,0-.9,0-1.4,0-3.3.3-6.4,2-8.8,4.6-2,2.2-3.3,4.8-3.8,7.6v.4c-.1.4-.2.9-.2,1.3-.2,3.4.9,6.4,3.1,8.6,1.9,1.8,4.3,2.8,7,2.9.5,0,.9,0,1.4,0,3.3-.3,6.4-2,8.8-4.6,1.8-2,3.1-4.3,3.7-6.8l.3-2c0-.2,0-.3,0-.5.2-3.4-.9-6.4-3.1-8.6ZM306,296c0,.5,0,1-.2,1.4-.4,2.6-1.6,5-3.5,7-2.2,2.4-5,3.9-8,4.2-.4,0-.9,0-1.3,0-2.4,0-4.7-.9-6.4-2.6-2-2-3-4.7-2.8-7.8,0-.5,0-1,.2-1.4.4-2.6,1.6-5,3.5-7,2.2-2.4,5-3.9,8-4.2.4,0,.9,0,1.3,0,5.5,0,9.5,4.5,9.2,10.4Z"/>
      </g>
    </g>
  </g>
  <g class="st0">
    <g>
      <g>
        <rect class="st3" x="173.4" y="190.4" width="2.2" height="4.1" transform="translate(-83.7 163.7) rotate(-41.5)"/>
        <rect class="st3" x="168.5" y="184.9" width="2.2" height="4.1" transform="translate(-81.3 159.1) rotate(-41.5)"/>
        <rect class="st3" x="163.6" y="179.4" width="2.2" height="4.1" transform="translate(-78.8 154.5) rotate(-41.5)"/>
      </g>
      <g>
        <rect class="st3" x="188" y="207" width="2.2" height="4.1" transform="translate(-91 177.6) rotate(-41.5)"/>
        <rect class="st3" x="183.2" y="201.5" width="2.2" height="4.1" transform="translate(-88.6 173) rotate(-41.5)"/>
        <rect class="st3" x="178.3" y="196" width="2.2" height="4.1" transform="translate(-86.2 168.4) rotate(-41.5)"/>
      </g>
      <g>
        <rect class="st3" x="202.7" y="223.6" width="2.2" height="4.1" transform="translate(-98.3 191.4) rotate(-41.5)"/>
        <rect class="st3" x="197.8" y="218.1" width="2.2" height="4.1" transform="translate(-95.9 186.8) rotate(-41.5)"/>
        <rect class="st3" x="192.9" y="212.6" width="2.2" height="4.1" transform="translate(-93.5 182.2) rotate(-41.5)"/>
      </g>
    </g>
  </g>
  <g class="st0">
    <g>
      <g>
        <rect class="st3" x="100.2" y="237.1" width="2.2" height="3.4" transform="translate(-142.6 150.4) rotate(-47.1)"/>
        <rect class="st3" x="95.8" y="233" width="2.2" height="3.4" transform="translate(-141 145.8) rotate(-47.1)"/>
        <rect class="st3" x="91.3" y="228.8" width="2.2" height="3.4" transform="translate(-139.3 141.3) rotate(-47.1)"/>
      </g>
      <g>
        <rect class="st3" x="113.7" y="249.6" width="2.2" height="3.4" transform="translate(-147.4 164.2) rotate(-47.1)"/>
        <rect class="st3" x="109.2" y="245.4" width="2.2" height="3.4" transform="translate(-145.8 159.7) rotate(-47.1)"/>
        <rect class="st3" x="104.7" y="241.3" width="2.2" height="3.4" transform="translate(-144.2 155.1) rotate(-47.1)"/>
      </g>
      <g>
        <rect class="st3" x="127.1" y="262.1" width="2.2" height="3.4" transform="translate(-152.3 178) rotate(-47.1)"/>
        <rect class="st3" x="122.6" y="257.9" width="2.2" height="3.4" transform="translate(-150.7 173.5) rotate(-47.1)"/>
        <rect class="st3" x="118.2" y="253.8" width="2.2" height="3.4" transform="translate(-149.1 168.9) rotate(-47.1)"/>
      </g>
      <g>
        <rect class="st3" x="140.5" y="274.5" width="2.2" height="3.4" transform="translate(-157.1 191.9) rotate(-47.1)"/>
        <rect class="st3" x="136" y="270.4" width="2.2" height="3.4" transform="translate(-155.5 187.3) rotate(-47.1)"/>
        <rect class="st3" x="131.6" y="266.2" width="2.2" height="3.4" transform="translate(-153.9 182.7) rotate(-47.1)"/>
      </g>
    </g>
  </g>
  <g class="st0">
    <g>
      <g>
        <rect class="st3" x="238" y="171" width="2.2" height="3.8" transform="translate(-51.2 226) rotate(-46.2)"/>
        <rect class="st3" x="233" y="166.3" width="2.2" height="3.8" transform="translate(-49.3 221) rotate(-46.2)"/>
        <rect class="st3" x="228.1" y="161.6" width="2.2" height="3.8" transform="translate(-47.4 216) rotate(-46.2)"/>
      </g>
      <g>
        <rect class="st3" x="252.8" y="185.2" width="2.2" height="3.8" transform="translate(-56.9 241.1) rotate(-46.2)"/>
        <rect class="st3" x="247.9" y="180.5" width="2.2" height="3.8" transform="translate(-55 236.1) rotate(-46.2)"/>
        <rect class="st3" x="243" y="175.8" width="2.2" height="3.8" transform="translate(-53.1 231.1) rotate(-46.2)"/>
      </g>
      <g>
        <rect class="st3" x="267.7" y="199.4" width="2.2" height="3.8" transform="translate(-62.5 256.2) rotate(-46.2)"/>
        <rect class="st3" x="262.7" y="194.7" width="2.2" height="3.8" transform="translate(-60.7 251.2) rotate(-46.2)"/>
        <rect class="st3" x="257.8" y="190" width="2.2" height="3.8" transform="translate(-58.8 246.2) rotate(-46.2)"/>
      </g>
      <g>
        <rect class="st3" x="282.5" y="213.7" width="2.2" height="3.8" transform="translate(-68.2 271.3) rotate(-46.2)"/>
        <rect class="st3" x="277.6" y="208.9" width="2.2" height="3.8" transform="translate(-66.3 266.3) rotate(-46.2)"/>
        <rect class="st3" x="272.6" y="204.2" width="2.2" height="3.8" transform="translate(-64.5 261.3) rotate(-46.2)"/>
      </g>
      <g>
        <rect class="st3" x="297.4" y="227.9" width="2.2" height="3.8" transform="translate(-73.9 286.4) rotate(-46.2)"/>
        <rect class="st3" x="292.4" y="223.1" width="2.2" height="3.8" transform="translate(-72 281.4) rotate(-46.2)"/>
        <rect class="st3" x="287.5" y="218.4" width="2.2" height="3.8" transform="translate(-70.1 276.4) rotate(-46.2)"/>
      </g>
      <g>
        <rect class="st3" x="312.2" y="242.1" width="2.2" height="3.8" transform="translate(-79.6 301.5) rotate(-46.2)"/>
        <rect class="st3" x="307.3" y="237.4" width="2.2" height="3.8" transform="translate(-77.7 296.5) rotate(-46.2)"/>
        <rect class="st3" x="302.3" y="232.6" width="2.2" height="3.8" transform="translate(-75.8 291.5) rotate(-46.2)"/>
      </g>
    </g>
  </g>
  <g class="st0">
    <g>
      <g>
        <rect class="st3" x="126.7" y="359" width="2.2" height="3.2" transform="translate(-223.7 209.3) rotate(-47.2)"/>
        <rect class="st3" x="122.4" y="355.1" width="2.2" height="3.2" transform="translate(-222.1 204.9) rotate(-47.2)"/>
        <rect class="st3" x="118.2" y="351.2" width="2.2" height="3.2" transform="translate(-220.6 200.5) rotate(-47.2)"/>
      </g>
      <g>
        <rect class="st3" x="139.5" y="370.9" width="2.2" height="3.2" transform="translate(-228.3 222.5) rotate(-47.2)"/>
        <polygon class="st4" points="135.6 366.4 134.1 368 136.8 370.5 138.3 368.9 135.6 366.4"/>
        <rect class="st3" x="131" y="363" width="2.2" height="3.2" transform="translate(-225.2 213.7) rotate(-47.2)"/>
      </g>
      <g>
        <rect class="st3" x="152.3" y="382.8" width="2.2" height="3.2" transform="translate(-232.9 235.7) rotate(-47.2)"/>
        <rect class="st3" x="148" y="378.8" width="2.2" height="3.2" transform="translate(-231.3 231.3) rotate(-47.2)"/>
        <rect class="st3" x="143.8" y="374.9" width="2.2" height="3.2" transform="translate(-229.8 227) rotate(-47.2)"/>
      </g>
      <g>
        <rect class="st3" x="165.1" y="394.6" width="2.2" height="3.2" transform="translate(-237.5 248.9) rotate(-47.2)"/>
        <rect class="st3" x="160.9" y="390.7" width="2.2" height="3.2" transform="translate(-235.9 244.5) rotate(-47.2)"/>
        <rect class="st3" x="156.6" y="386.8" width="2.2" height="3.2" transform="translate(-234.4 240.2) rotate(-47.2)"/>
      </g>
    </g>
  </g>
</svg>