<?xml version="1.0" encoding="UTF-8"?>
<svg id="OBJECTS" xmlns="http://www.w3.org/2000/svg" version="1.1" viewBox="0 0 500 500">
  <!-- Generator: Adobe Illustrator 29.0.0, SVG Export Plug-In . SVG Version: 2.1.0 Build 186)  -->
  <defs>
    <style>
      .st0 {
        opacity: .3;
      }

      .st1 {
        fill: #434244;
      }

      .st2 {
        opacity: .8;
      }

      .st3 {
        fill: #272525;
      }

      .st4 {
        fill: #fff;
      }

      .st5 {
        fill: #78d1c2;
      }

      .st6 {
        opacity: .5;
      }

      .st7 {
        isolation: isolate;
      }

      .st8 {
        fill: #446661;
      }
    </style>
  </defs>
  <g class="st2">
    <path class="st1" d="M137.9,373.8c-2.4,0-4.7-.8-6.3-2.2-1.4-1.2-2.2-2.8-2.2-4.4v-163.1c0-3.1,2.9-5.9,6.8-6.5l109.8-17.3v-11.2c0-6.3,4.5-11.6,10.8-12.6l78.5-12.6c3.9-.6,7.8.5,10.8,3,3,2.5,4.7,6.2,4.7,10.2v6.8s3.3-.5,3.3-.5c3-.5,6,.3,8.1,2,1.4,1.2,2.2,2.8,2.2,4.4v163.1c0,3.1-2.9,5.9-6.8,6.5l-217.9,34.4c-.6,0-1.2.1-1.7.1ZM337.4,145.3c-.6,0-1.2,0-1.9.1l-78.5,12.6c-5.4.9-9.3,5.5-9.3,11v12.7l-111.2,17.5c-3.1.5-5.4,2.5-5.4,4.8v163.1c0,1.5.9,2.5,1.6,3.2,1.6,1.4,4.2,2,6.7,1.7l217.9-34.4c3.1-.5,5.4-2.5,5.4-4.8v-163.1c0-1.5-.9-2.5-1.6-3.2-1.6-1.4-4.2-2-6.7-1.7v-.8c-.1,0,0,.8,0,.8l-5.3.8v-8.8c0-3.4-1.5-6.7-4.1-8.9-2.1-1.8-4.8-2.8-7.6-2.8Z"/>
  </g>
  <g>
    <path class="st4" d="M375.9,179.5l-8.7,1.4,5.4-7s-9.8-13.4-19.9-12.4l-78.5,12.6c-5.8.9-10.1,5.9-10.1,11.8v11.3l-106.1,16.7c-3.6.6-6.1,2.9-6.1,5.6v163.1c0,2.8,7.3,9.8,10.7,13.2,1.2,1.2,2.8,1.7,4.5,1.3l211.9-43.3c3.6-.6,6.1-2.9,6.1-5.6l9-155.9c-.6-3.9-12.6-13.6-18.3-12.9Z"/>
    <path class="st1" d="M166.2,399.1c-1.8,0-3.5-.7-4.7-1.9l-.5-.5c-7-6.9-10.8-11.1-10.8-14v-163.1c0-3.7,3.1-6.7,7.6-7.4l104.6-16.5v-9.7c0-6.8,4.9-12.5,11.6-13.6l78.5-12.6h0c11-1.1,21.1,12.5,21.6,13.1l.8,1.1-3.5,4.5,4.3-.7c4.3-.5,10.1,3.4,12.4,5.1,3.6,2.6,7.5,6.5,8,9.3v.2s0,.2,0,.2l-9,155.9c0,3.6-3.1,6.6-7.6,7.4l-211.9,43.3c-.5,0-.9.1-1.4.1ZM353,163.2l-78.4,12.6c-4.9.8-8.5,5-8.5,10v12.8l-107.6,17c-2.7.4-4.6,2-4.6,3.9v163.1c0,.1.2,1.2,3.4,4.9,2.1,2.3,4.5,4.8,6.3,6.5l.5.5c.7.7,1.8,1,2.8.8l212-43.3h0c2.7-.4,4.6-2,4.6-3.9h0c0-.1,9-155.8,9-155.8-.3-1.1-2.5-3.9-6.5-6.9-3.9-2.9-7.7-4.6-9.7-4.4l-13.2,2.1,7.3-9.5c-2.5-3-10.1-11.3-17.4-10.6Z"/>
  </g>
  <g>
    <path class="st4" d="M376.7,193.6l-103,15.8v-14.4c0-5.9,4.3-10.9,10.1-11.8l78.5-12.6c7.6-1.2,14.5,4.7,14.5,12.4v10.7Z"/>
    <path class="st1" d="M271.8,211.4v-16.5c0-6.8,4.9-12.5,11.6-13.6l78.5-12.6c4.1-.7,8.4.5,11.6,3.2,3.2,2.7,5,6.7,5,10.9v12.2s-106.6,16.3-106.6,16.3ZM364.2,172.2c-.6,0-1.1,0-1.7.1l-78.5,12.6c-4.9.8-8.5,5-8.5,10v12.3l99.4-15.2v-9.1c0-3.1-1.4-6.1-3.8-8.2-2-1.7-4.4-2.6-6.9-2.6Z"/>
  </g>
  <g>
    <path class="st4" d="M388.6,363l-217.9,34.4c-4.8.8-9.3-2-9.3-5.6v-163.1c0-2.7,2.5-5.1,6.1-5.6l217.9-34.4c4.8-.8,9.3,2,9.3,5.6v163.1c0,2.7-2.5,5.1-6.1,5.6Z"/>
    <path class="st1" d="M169.1,399.3c-2.6,0-5.1-.8-6.9-2.4-1.6-1.4-2.5-3.2-2.5-5.2v-163.1c0-3.7,3.1-6.7,7.6-7.4l217.9-34.4c3.3-.5,6.6.3,8.8,2.3,1.6,1.4,2.5,3.2,2.5,5.2v163.1c0,3.7-3.1,6.7-7.6,7.4l-.3-1.8.3,1.8-217.9,34.4c-.6,0-1.3.1-1.9.1ZM387,190.3c-.4,0-.9,0-1.3.1l-217.9,34.4c-2.7.4-4.6,2-4.6,3.9v163.1c0,1.1.7,1.9,1.3,2.4,1.4,1.2,3.7,1.8,5.9,1.4l217.9-34.4c2.7-.4,4.6-2,4.6-3.9v-163.1c0-1.1-.7-1.9-1.3-2.4-1.2-1-2.8-1.5-4.6-1.5Z"/>
  </g>
  <g>
    <path class="st4" d="M161.4,354.8v38.3c0,3.7,4.5,6.4,9.3,5.6l217.9-34.4c3.6-.6,6.1-2.9,6.1-5.6v-38.1l-233.3,34.1Z"/>
    <path class="st1" d="M169.1,400.7c-2.6,0-5.1-.8-6.9-2.4-1.6-1.4-2.5-3.2-2.5-5.2v-39.8l1.5-.2,235.3-34.4v40.1c0,3.7-3.1,6.7-7.6,7.4l-217.9,34.4c-.6,0-1.3.1-1.9.1ZM163.2,356.4v36.7c0,1.1.7,1.9,1.3,2.4,1.4,1.2,3.7,1.8,5.9,1.4l217.9-34.4c2.7-.4,4.6-2,4.6-3.9v-36l-229.6,33.6Z"/>
  </g>
  <g class="st7">
    <g>
      <path class="st4" d="M323.5,223.6c-34.5-.6-67.3,28.5-73.1,64.9-5.8,36.4,17.5,66.5,52,67.1,34.5.6,67.3-28.5,73.1-64.9,5.8-36.4-17.5-66.5-52-67.1Z"/>
      <path class="st1" d="M324.3,218.8c-37-.6-72.1,30.6-78.4,69.6-6.3,39,18.7,71.3,55.7,71.9,37,.6,72.1-30.6,78.4-69.6,6.3-39-18.7-71.3-55.7-71.9ZM375.5,290.7c-5.8,36.4-38.6,65.5-73.1,64.9-34.5-.6-57.8-30.7-52-67.1,5.8-36.4,38.6-65.5,73.1-64.9,34.5.6,57.8,30.7,52,67.1Z"/>
    </g>
  </g>
  <g class="st7">
    <g>
      <path class="st4" d="M321.1,238.8c-26.6-.5-51.8,22-56.3,50-4.5,28,13.5,51.2,40,51.7,26.5.5,51.8-22,56.3-50,4.5-28-13.5-51.2-40-51.7Z"/>
      <path class="st1" d="M321.6,235.7c-28.1-.5-54.9,23.3-59.7,53-4.8,29.7,14.3,54.3,42.4,54.8,28.1.5,54.9-23.3,59.7-53,4.8-29.7-14.3-54.3-42.4-54.8ZM361.1,290.4c-4.5,28-29.7,50.4-56.3,50-26.6-.5-44.5-23.6-40-51.7,4.5-28,29.7-50.4,56.3-50,26.5.5,44.5,23.6,40,51.7Z"/>
    </g>
  </g>
  <g>
    <path class="st4" d="M212.9,252.5l-37.3,6.2c-.8.1-1.6-.3-1.6-.8v-22.6c0-.4.4-.7,1-.8l37.3-6.2c.8-.1,1.6.3,1.6.8v22.6c0,.4-.4.7-1,.8Z"/>
    <path class="st1" d="M175.3,259.4c-.6,0-1.2-.2-1.6-.5-.3-.3-.5-.6-.5-1v-22.6c0-.7.7-1.4,1.7-1.5l37.3-6.2c.7,0,1.5,0,1.9.5.3.3.5.6.5,1v22.6c0,.7-.7,1.3-1.6,1.5l-37.3,6.2c-.1,0-.3,0-.4,0ZM174.6,257.8c0,0,.4.2.8.2l37.3-6.2c.2,0,.4-.1.4-.2v-22.5c0,0-.4-.2-.8-.2l-37.3,6.2c-.3,0-.4.1-.5.2v22.5Z"/>
  </g>
  <g>
    <g class="st7">
      <g>
        <path class="st8" d="M343.6,257.6c-28.7-.5-56,23.7-60.9,54-4.9,30.3,14.6,55.4,43.3,55.9,28.7.5,56-23.7,60.9-54,4.9-30.3-14.5-55.4-43.3-55.9Z"/>
        <path class="st1" d="M344.2,254.4c-30.4-.5-59.3,25.1-64.5,57.2-5.1,32.1,15.4,58.6,45.8,59.2,30.4.5,59.3-25.1,64.5-57.2,5.1-32.1-15.4-58.6-45.8-59.2ZM386.9,313.5c-4.9,30.3-32.2,54.5-60.9,54-28.7-.5-48.1-25.6-43.3-55.9,4.9-30.3,32.2-54.5,60.9-54,28.7.5,48.1,25.6,43.3,55.9Z"/>
      </g>
    </g>
    <g class="st7">
      <g>
        <path class="st5" d="M352.3,264.2c-28.7-.5-56,23.7-60.9,54-4.9,30.3,14.5,55.4,43.3,55.9,28.7.5,56-23.7,60.9-54,4.9-30.3-14.6-55.4-43.3-55.9Z"/>
        <path class="st1" d="M352.8,261c-30.4-.5-59.3,25.1-64.5,57.2-5.1,32.1,15.4,58.6,45.8,59.2,30.4.5,59.3-25.1,64.5-57.2,5.1-32.1-15.4-58.6-45.8-59.2ZM395.6,320.1c-4.9,30.3-32.2,54.5-60.9,54-28.7-.5-48.1-25.6-43.3-55.9,4.9-30.3,32.2-54.5,60.9-54,28.7.5,48.1,25.6,43.3,55.9Z"/>
      </g>
    </g>
  </g>
  <g>
    <path class="st4" d="M200.1,211.3c0,4-3.2,7.1-13.2,8.4-9.1,1.5-14-1.9-14.4-6-.4-4.2,5.1-8.1,13.6-8.7,8.3-.6,13.9,2.3,14,6.3Z"/>
    <path class="st1" d="M182.9,221.8c-3.7,0-6.8-.9-9-2.6-1.8-1.4-2.9-3.3-3.1-5.4-.2-1.8.4-3.6,1.8-5.2,2.6-3.1,7.5-5.1,13.5-5.5,5.9-.4,10.9.8,13.6,3.3,1.4,1.3,2.2,3,2.3,4.7.1,8.2-11,9.7-14.7,10.2-1.5.2-3,.4-4.3.4ZM188.3,206.7c-.7,0-1.3,0-2,0-4.9.4-9.1,2-11,4.3-.7.9-1.1,1.7-1,2.6.1,1.1.7,2.1,1.7,2.9,1.3,1,4.4,2.5,10.7,1.5h0c11.7-1.6,11.7-5.4,11.7-6.7h0c0-.8-.4-1.5-1.1-2.2-1.7-1.6-5-2.5-9-2.5Z"/>
  </g>
  <g class="st0">
    <g>
      <g>
        <rect class="st3" x="144.2" y="209.6" width="2.1" height="3.6" transform="translate(-110.5 191.6) rotate(-51.1)"/>
        <rect class="st3" x="139.2" y="205.6" width="2.1" height="3.6" transform="translate(-109.2 186.3) rotate(-51.1)"/>
        <rect class="st3" x="134.3" y="201.6" width="2.1" height="3.6" transform="translate(-107.9 180.9) rotate(-51.1)"/>
      </g>
      <g>
        <rect class="st3" x="159.1" y="221.7" width="2.1" height="3.6" transform="translate(-114.3 207.7) rotate(-51.1)"/>
        <rect class="st3" x="154.2" y="217.7" width="2.1" height="3.6" transform="translate(-113 202.3) rotate(-51.1)"/>
        <rect class="st3" x="149.2" y="213.7" width="2.1" height="3.6" transform="translate(-111.8 197) rotate(-51.1)"/>
      </g>
    </g>
  </g>
  <g class="st0">
    <g>
      <g>
        <rect class="st3" x="142.8" y="379.6" width="2.1" height="3.6" transform="translate(-241.4 248.3) rotate(-50.3)"/>
        <rect class="st3" x="137.9" y="375.5" width="2.1" height="3.6" transform="translate(-240 243) rotate(-50.3)"/>
        <rect class="st3" x="132.9" y="371.4" width="2.1" height="3.6" transform="translate(-238.7 237.7) rotate(-50.3)"/>
      </g>
      <g>
        <rect class="st3" x="157.7" y="392" width="2.1" height="3.6" transform="translate(-245.6 264.2) rotate(-50.3)"/>
        <rect class="st3" x="152.8" y="387.9" width="2.1" height="3.6" transform="translate(-244.2 258.9) rotate(-50.3)"/>
        <rect class="st3" x="147.8" y="383.8" width="2.1" height="3.6" transform="translate(-242.8 253.6) rotate(-50.3)"/>
      </g>
    </g>
  </g>
  <g class="st0">
    <g>
      <g>
        <rect class="st3" x="351.9" y="153.2" width="2.1" height="3.6" transform="translate(8.2 327.4) rotate(-50.3)"/>
        <rect class="st3" x="347" y="149.1" width="2.1" height="3.6" transform="translate(9.5 322.1) rotate(-50.3)"/>
        <rect class="st3" x="342" y="145" width="2.1" height="3.6" transform="translate(10.9 316.8) rotate(-50.3)"/>
      </g>
      <g>
        <rect class="st3" x="366.8" y="165.6" width="2.1" height="3.6" transform="translate(4 343.4) rotate(-50.3)"/>
        <rect class="st3" x="361.9" y="161.5" width="2.1" height="3.6" transform="translate(5.4 338.1) rotate(-50.3)"/>
        <rect class="st3" x="356.9" y="157.4" width="2.1" height="3.6" transform="translate(6.8 332.8) rotate(-50.3)"/>
      </g>
    </g>
  </g>
  <g class="st0">
    <g>
      <g>
        <rect class="st3" x="256.8" y="189.5" width="2.1" height="3.4" transform="translate(-57.7 250.1) rotate(-47.1)"/>
        <rect class="st3" x="252.3" y="185.4" width="2.1" height="3.4" transform="translate(-56.1 245.5) rotate(-47.1)"/>
        <rect class="st3" x="247.9" y="181.2" width="2.1" height="3.4" transform="translate(-54.5 240.9) rotate(-47.1)"/>
      </g>
      <g>
        <rect class="st3" x="270.2" y="202" width="2.1" height="3.4" transform="translate(-62.5 263.9) rotate(-47.1)"/>
        <rect class="st3" x="265.7" y="197.8" width="2.1" height="3.4" transform="translate(-60.9 259.4) rotate(-47.1)"/>
        <rect class="st3" x="261.3" y="193.7" width="2.1" height="3.4" transform="translate(-59.3 254.8) rotate(-47.1)"/>
      </g>
    </g>
  </g>
  <g class="st0">
    <g>
      <g>
        <rect class="st3" x="260" y="169.6" width="2.1" height="3.4" transform="translate(-42.1 246.1) rotate(-47.1)"/>
        <rect class="st3" x="255.5" y="165.4" width="2.1" height="3.4" transform="translate(-40.5 241.5) rotate(-47.1)"/>
        <rect class="st3" x="251.1" y="161.3" width="2.1" height="3.4" transform="translate(-38.9 236.9) rotate(-47.1)"/>
      </g>
      <g>
        <rect class="st3" x="273.4" y="182" width="2.1" height="3.4" transform="translate(-46.9 259.9) rotate(-47.1)"/>
        <rect class="st3" x="268.9" y="177.9" width="2.1" height="3.4" transform="translate(-45.3 255.3) rotate(-47.1)"/>
        <rect class="st3" x="264.5" y="173.8" width="2.1" height="3.4" transform="translate(-43.7 250.7) rotate(-47.1)"/>
      </g>
    </g>
  </g>
  <g class="st0">
    <g>
      <g>
        <rect class="st3" x="274.5" y="293.7" width="2.1" height="3.2" transform="translate(-124.7 349.4) rotate(-54.7)"/>
        <rect class="st3" x="269.8" y="290.3" width="2.1" height="3.2" transform="translate(-123.9 344.2) rotate(-54.7)"/>
        <rect class="st3" x="265.1" y="287" width="2.1" height="3.2" transform="translate(-123.2 338.9) rotate(-54.7)"/>
      </g>
      <g>
        <rect class="st3" x="288.6" y="303.7" width="2.1" height="3.2" transform="translate(-126.9 365.2) rotate(-54.7)"/>
        <rect class="st3" x="283.9" y="300.3" width="2.1" height="3.2" transform="translate(-126.1 359.9) rotate(-54.7)"/>
        <rect class="st3" x="279.2" y="297" width="2.1" height="3.2" transform="translate(-125.4 354.7) rotate(-54.7)"/>
      </g>
    </g>
  </g>
  <g class="st0">
    <g>
      <g>
        <rect class="st3" x="342.9" y="247.6" width="2.1" height="4" transform="translate(-56 393.4) rotate(-55.7)"/>
        <rect class="st3" x="337" y="243.6" width="2.1" height="4" transform="translate(-55.2 386.8) rotate(-55.7)"/>
        <rect class="st3" x="331.1" y="239.6" width="2.1" height="4" transform="translate(-54.5 380.2) rotate(-55.7)"/>
      </g>
      <g>
        <rect class="st3" x="360.6" y="259.7" width="2.1" height="4" transform="translate(-58.2 413.3) rotate(-55.7)"/>
        <rect class="st3" x="354.7" y="255.7" width="2.1" height="4" transform="translate(-57.5 406.7) rotate(-55.7)"/>
        <rect class="st3" x="348.8" y="251.7" width="2.1" height="4" transform="translate(-56.7 400.1) rotate(-55.7)"/>
      </g>
    </g>
  </g>
  <rect class="st1" x="155.7" y="214.7" width="4.2" height="13" transform="translate(-113.6 207.4) rotate(-51.6)"/>
  <rect class="st1" x="266.5" y="194.4" width="4.2" height="13.4" transform="translate(-58.8 274.8) rotate(-49.5)"/>
  <rect class="st1" x="270.1" y="175.7" width="4.2" height="13" transform="translate(-39.7 282.3) rotate(-51.6)"/>
  <g class="st6">
    <g>
      <g>
        <rect class="st3" x="185.4" y="200.2" width="1.6" height="2.3"/>
        <rect class="st3" x="185.4" y="204.4" width="1.6" height="2.3"/>
        <rect class="st3" x="185.4" y="208.5" width="1.6" height="2.3"/>
      </g>
      <g>
        <rect class="st3" x="185.4" y="187.6" width="1.6" height="2.3"/>
        <rect class="st3" x="185.4" y="191.8" width="1.6" height="2.3"/>
        <rect class="st3" x="185.4" y="196" width="1.6" height="2.3"/>
      </g>
    </g>
  </g>
  <g>
    <path class="st8" d="M206.4,173.7c0,6.3-2.4,11-19.6,13.1-17,.3-20.6-4.1-21.1-10.6-.5-6.6,7.8-12.7,20.3-13.2,12.3-.5,20.4,4.3,20.4,10.8Z"/>
    <path class="st1" d="M185.4,188.1c-14.4,0-20.2-3.4-20.8-11.7-.2-2.6.8-5.1,2.8-7.4,3.7-4.2,10.5-6.8,18.7-7.2,8-.3,14.8,1.5,18.6,5.2,2,1.9,3.1,4.3,3.1,6.8,0,3-.5,6.4-3.8,9.1-3.2,2.5-8.5,4.2-16.9,5.2h-.1c-.5,0-1,0-1.5,0ZM187.9,164.2c-.6,0-1.2,0-1.8,0-7.4.3-13.7,2.7-17,6.3-1.5,1.7-2.3,3.7-2.1,5.6.4,4.9,2.2,9.7,19.7,9.5,17-2.1,18.5-6.6,18.5-11.9h0c0-1.9-.8-3.6-2.3-5-3-2.9-8.4-4.5-15-4.5Z"/>
  </g>
  <g>
    <path class="st5" d="M206.4,170.4c0,5.8-7.9,11.1-19.7,11.9-12,.7-20.6-3.4-21-9.3-.4-6.1,7.8-11.8,20.3-12.3,12.3-.6,20.4,3.8,20.3,9.8Z"/>
    <path class="st1" d="M184.1,183.5c-4.9,0-9.3-.8-12.6-2.3-4.2-1.9-6.6-4.8-6.8-8.2-.2-2.3.7-4.5,2.5-6.5,3.6-4.1,10.7-6.7,19-7.1,8.3-.4,15.2,1.4,18.8,5,1.8,1.7,2.7,3.8,2.7,6,0,6.8-8.8,12.3-20.8,13-.9,0-1.9,0-2.8,0ZM188.1,161.7c-.7,0-1.3,0-2,0-7.7.4-14.2,2.7-17.4,6.3-1.3,1.5-2,3.2-1.9,4.8.4,5.4,8.9,8.9,19.8,8.3,10.5-.6,18.5-5.2,18.6-10.7h0c0-1.6-.7-3-2-4.3-2.9-2.8-8.5-4.4-15.1-4.4Z"/>
  </g>
  <g class="st6">
    <g>
      <g>
        <rect class="st3" x="185.4" y="156.9" width="1.6" height="2.9"/>
        <rect class="st3" x="185.4" y="162.1" width="1.6" height="2.9"/>
        <rect class="st3" x="185.4" y="167.2" width="1.6" height="2.9"/>
      </g>
      <g>
        <rect class="st3" x="185.4" y="141.3" width="1.6" height="2.9"/>
        <rect class="st3" x="185.4" y="146.5" width="1.6" height="2.9"/>
        <rect class="st3" x="185.4" y="151.7" width="1.6" height="2.9"/>
      </g>
      <g>
        <rect class="st3" x="185.4" y="125.8" width="1.6" height="2.9"/>
        <rect class="st3" x="185.4" y="130.9" width="1.6" height="2.9"/>
        <rect class="st3" x="185.4" y="136.1" width="1.6" height="2.9"/>
      </g>
    </g>
  </g>
  <g class="st0">
    <g>
      <g>
        <rect class="st3" x="182.7" y="265.9" width="2.1" height="2.7" transform="translate(-137.2 221) rotate(-47.3)"/>
        <rect class="st3" x="179.1" y="262.6" width="2.1" height="2.7" transform="translate(-136 217.3) rotate(-47.3)"/>
        <rect class="st3" x="175.5" y="259.2" width="2.1" height="2.7" transform="translate(-134.7 213.6) rotate(-47.3)"/>
      </g>
      <g>
        <rect class="st3" x="193.5" y="275.8" width="2.1" height="2.7" transform="translate(-141.1 232.2) rotate(-47.3)"/>
        <rect class="st3" x="189.9" y="272.5" width="2.1" height="2.7" transform="translate(-139.8 228.4) rotate(-47.3)"/>
        <rect class="st3" x="186.3" y="269.2" width="2.1" height="2.7" transform="translate(-138.5 224.8) rotate(-47.3)"/>
      </g>
    </g>
  </g>
  <g>
    <path class="st8" d="M231.6,245.9c-.8-.6-1.8-.9-2.8-.7l-35.8,5.9c-.6,0-1,.4-1,.8v21.5c0,.7.3,1.4.7,1.9l2.1,2.3c.7.8,1.7,1.1,2.7.8l17.1-4.7,21.3-24.4-4.2-3.3Z"/>
    <path class="st1" d="M196.7,279.6c-1.1,0-2.1-.4-2.8-1.2l-2.1-2.3c-.7-.7-1-1.7-1-2.6v-21.5c0-.9.8-1.7,2-1.9l35.8-5.9c1.3-.2,2.6.1,3.7.9l4.2,3.3-1.4,1.7-4.2-3.3c-.6-.4-1.3-.6-2-.5l-35.8,5.9s0,0,0,0v21.2c0,.4.2.8.5,1.2l2.1,2.3c.4.4,1,.6,1.6.5l17.1-4.7.6,2.1-17.1,4.7c-.3,0-.7.1-1,.1Z"/>
  </g>
  <g>
    <path class="st5" d="M234.8,272.6l-37.3,6.2c-.8.1-1.6-.3-1.6-.8v-22.6c0-.4.4-.7,1-.8l37.3-6.2c.8-.1,1.6.3,1.6.8v22.6c0,.4-.4.7-1,.8Z"/>
    <path class="st1" d="M197.2,279.7c-.7,0-1.3-.2-1.7-.6-.3-.3-.5-.7-.5-1.1v-22.6c0-.8.7-1.5,1.8-1.6l37.3-6.2c.8-.1,1.6.1,2.1.5.3.3.5.7.5,1.1v22.6c0,.8-.7,1.5-1.8,1.6l-37.3,6.2c-.1,0-.3,0-.4,0ZM196.7,277.8c.1,0,.3.1.6,0l37.3-6.2c.1,0,.2,0,.3,0v-22.3c-.1,0-.3-.1-.6,0l-37.3,6.2c-.2,0-.3,0-.3,0v22.3Z"/>
  </g>
  <rect class="st1" x="192.8" y="251" width="2.2" height="5.2" transform="translate(-124.4 228.5) rotate(-48.1)"/>
  <g class="st0">
    <g>
      <g>
        <rect class="st3" x="181.8" y="242.2" width="2.1" height="2.8" transform="translate(-120 210.6) rotate(-46.9)"/>
        <rect class="st3" x="178.2" y="238.8" width="2.1" height="2.8" transform="translate(-118.6 206.8) rotate(-46.9)"/>
        <rect class="st3" x="174.5" y="235.4" width="2.1" height="2.8" transform="translate(-117.3 203.1) rotate(-46.9)"/>
      </g>
      <g>
        <rect class="st3" x="192.8" y="252.5" width="2.1" height="2.8" transform="translate(-124 221.8) rotate(-46.9)"/>
        <rect class="st3" x="189.1" y="249.1" width="2.1" height="2.8" transform="translate(-122.6 218.1) rotate(-46.9)"/>
        <rect class="st3" x="185.5" y="245.7" width="2.1" height="2.8" transform="translate(-121.3 214.3) rotate(-46.9)"/>
      </g>
    </g>
  </g>
  <g class="st0">
    <g>
      <g>
        <rect class="st3" x="220.4" y="235.6" width="2.1" height="2.7" transform="translate(-102.9 238.2) rotate(-47.2)"/>
        <rect class="st3" x="216.7" y="232.2" width="2.1" height="2.7" transform="translate(-101.6 234.5) rotate(-47.2)"/>
        <rect class="st3" x="213.1" y="228.9" width="2.1" height="2.7" transform="translate(-100.3 230.8) rotate(-47.2)"/>
      </g>
      <g>
        <rect class="st3" x="231.2" y="245.6" width="2.1" height="2.7" transform="translate(-106.8 249.4) rotate(-47.2)"/>
        <rect class="st3" x="227.6" y="242.3" width="2.1" height="2.7" transform="translate(-105.5 245.6) rotate(-47.2)"/>
        <rect class="st3" x="224" y="238.9" width="2.1" height="2.7" transform="translate(-104.2 241.9) rotate(-47.2)"/>
      </g>
    </g>
  </g>
</svg>