<svg xmlns="http://www.w3.org/2000/svg" fill="none" viewBox="0 0 24 24" id="Facebook--Streamline-Svg-Logos" height="24" width="24"><desc>Facebook Streamline Icon: https://streamlinehq.com</desc><path fill="#1877f2" d="M23.75 12C23.75 5.51065 18.48935 0.25 12 0.25S0.25 5.51065 0.25 12c0 5.864775 4.2968 10.725775 9.91405 11.60725V15.396475H7.180675V12h2.983375V9.411325c0 -2.94485 1.7542 -4.571475 4.43815 -4.571475 1.28555 0 2.630225 0.229475 2.630225 0.229475v2.891625h-1.48165c-1.45965 0 -1.914825 0.905725 -1.914825 1.83495V12h3.258775l-0.52095 3.396475H13.83595V23.60725C19.4532 22.725775 23.75 17.864775 23.75 12Z" stroke-width="0.25"></path><path fill="#ffffff" d="M16.573775 15.396475 17.094725 12H13.83595v-2.2041c0 -0.929225 0.455175 -1.83495 1.914825 -1.83495h1.48165V5.069325s-1.344675 -0.229475 -2.630225 -0.229475c-2.68395 0 -4.43815 1.626625 -4.43815 4.571475V12H7.180675v3.396475h2.983375V23.60725C10.762275 23.701125 11.375425 23.75 12 23.75c0.624575 0 1.237725 -0.048875 1.83595 -0.14275V15.396475h2.737825Z" stroke-width="0.25"></path></svg>
