<?xml version="1.0" encoding="UTF-8"?>
<svg id="OBJECTS" xmlns="http://www.w3.org/2000/svg" version="1.1" viewBox="0 0 500 500">
  <!-- Generator: Adobe Illustrator 29.0.0, SVG Export Plug-In . SVG Version: 2.1.0 Build 186)  -->
  <defs>
    <style>
      .st0 {
        opacity: .3;
      }

      .st1 {
        fill: #434244;
      }

      .st2 {
        opacity: .8;
      }

      .st3 {
        fill: #272525;
      }

      .st4, .st5 {
        fill: #fff;
      }

      .st6 {
        fill: #78d1c2;
      }

      .st5 {
        fill-rule: evenodd;
      }

      .st7 {
        isolation: isolate;
      }

      .st8 {
        fill: #446661;
      }
    </style>
  </defs>
  <g class="st2">
    <path class="st1" d="M121.8,390.5c-2.5,0-4.8-.7-6.3-2-1.1-.9-1.7-2.1-1.7-3.4v-126.6c0-.1,0-.3,0-.5,0-1.7,0-4.7,2.2-7-1,0-1.9,0-2,0h-1.1s0-34.8,0-34.8c0-2.2.9-4.3,2.5-5.8q.2-.1,201.2-96c3-1.4,6.6-1.2,9.4.6,2.8,1.8,4.5,4.9,4.5,8.3l.2,12.7c0,.7.2,4.7-5.9,8.2h0s-132.1,63-132.1,63l143.5-25.5c1.9-.3,3.9.2,5.4,1.4,1.5,1.3,2.4,3.1,2.4,5.1v17.4c0,3.1-2.1,5.7-5,6.4.9.4,1.8.9,2.5,1.5,1.6,1.4,2.6,3.1,2.6,4.6v129.1c0,2.7-2.8,5.1-6.8,5.8l-213.1,37c-.7.1-1.5.2-2.2.2ZM117.8,249.1c.7,0,1.2.4,1.4,1.1.2.6,0,1.3-.7,1.6-2.8,1.6-2.8,4.5-2.7,6.4,0,.2,0,.4,0,.5v126.6c0,.6.3,1.2,1,1.8,1.5,1.2,4.3,1.8,6.9,1.3l213.1-37c2.9-.5,5.1-2.1,5.1-3.8v-129.1c0-.9-.7-2.1-1.8-3.1-1.7-1.4-4-2.1-6-1.7l-.5-2,4.5-1.3c2.2-.4,3.8-2.3,3.8-4.5v-17.4c0-1.4-.6-2.6-1.6-3.5-1-.9-2.4-1.2-3.7-1l-158.6,28.2,145.9-69.5c5.2-3,4.9-6,4.9-6.2h0c0,0,0-.1,0-.1l-.2-12.8c0-2.7-1.3-5.1-3.5-6.5-2.2-1.4-5-1.6-7.4-.5-2,.9-195.4,93-200.8,95.7-1.1,1.1-1.7,2.6-1.7,4.2v32.7c.9,0,2.3,0,2.8,0h0Z"/>
  </g>
  <g>
    <path class="st4" d="M355.1,233.9l-213.1,37c-7.2,2.4-6,6.8-6,9v126.6c0,2.9,4.4,4.9,9.1,4.1l213.1-37c3.5-.6,6-2.6,6-4.8v-129.1c0-2.9-4.4-6.6-9.1-5.8Z"/>
    <path class="st1" d="M142.9,412.6c-2.6,0-5.1-.8-6.8-2.1-1.3-1.1-2-2.5-2-3.9v-126.6c0-.2,0-.5,0-.7-.1-2.4-.4-7.4,7.2-9.9h.1s.1,0,.1,0l213.1-37c2.9-.5,6,.4,8.3,2.3,1.8,1.5,2.8,3.4,2.8,5.2v129.1c0,3.1-3.1,5.8-7.4,6.5l-213.1,37c-.8.1-1.6.2-2.4.2ZM142.4,272.7c-4.9,1.7-4.8,4.2-4.7,6.3,0,.3,0,.6,0,.9v126.6c0,.4.2.8.7,1.2,1.1.9,3.5,1.6,6.3,1.2l213.1-37c2.8-.5,4.5-2,4.5-3v-129.1c0-.7-.6-1.7-1.6-2.5-1.5-1.3-3.6-1.9-5.4-1.6l-213,37Z"/>
  </g>
  <g>
    <path class="st4" d="M357.5,204.2l-217.8,38.7c-2.7.5-4.6,2.8-4.6,5.5v17.4c0,3.5,3.1,6.1,6.6,5.5l217.8-38.7c2.7-.5,4.6-2.8,4.6-5.5v-17.4c0-3.5-3.1-6.1-6.6-5.5Z"/>
    <path class="st1" d="M140.7,273.2c-1.7,0-3.4-.6-4.7-1.7-1.7-1.4-2.6-3.5-2.6-5.6v-17.4c0-3.6,2.6-6.6,6.1-7.3l217.8-38.7h0c2.2-.4,4.3.2,6,1.6,1.7,1.4,2.6,3.5,2.6,5.6v17.4c0,3.6-2.6,6.6-6.1,7.3l-217.8,38.7c-.4,0-.9.1-1.3.1ZM357.8,205.9l-217.8,38.7c-1.8.3-3.2,1.9-3.2,3.8v17.4c0,1.1.5,2.2,1.4,2.9.9.7,2,1,3.1.8l217.8-38.7c1.8-.3,3.2-1.9,3.2-3.8v-17.4c0-1.1-.5-2.2-1.4-2.9-.9-.7-2-1-3.1-.8h0Z"/>
  </g>
  <g>
    <path class="st4" d="M350.7,144.8c0-6.4-6.6-10.7-12.4-7.9l-199.9,95.1c-2.5,1.2-3.7,3.9-3,6.5l4.6,16.8c.9,3.4,4.7,5.1,7.8,3.6l199.8-94.8c2.5-1.2,3.7-3.9,3-6.5v-12.8Z"/>
    <path class="st1" d="M145.3,261.2c-1,0-2.1-.2-3.1-.7-2-.9-3.5-2.6-4-4.8l-4.6-16.8c-.9-3.5.7-7.1,4-8.6l199.9-95.1c3.3-1.6,7.1-1.3,10.1.6,3.1,1.9,4.9,5.3,4.8,8.9v12.6c.7,3.4-1,6.9-4.1,8.4l-199.8,94.8c-1,.5-2.1.7-3.2.7ZM342,137.8c-1,0-2,.2-3,.7l-199.9,95.1c-1.7.8-2.5,2.7-2.1,4.5l4.6,16.8c.3,1.1,1.1,2,2.1,2.5,1,.5,2.2.5,3.2,0l199.8-94.8c1.7-.8,2.5-2.7,2.1-4.5v-.2c0,0,0-13,0-13,0-2.4-1.2-4.6-3.2-5.9-1.1-.7-2.4-1.1-3.7-1.1Z"/>
  </g>
  <g>
    <path class="st5" d="M135.1,233.8s9.9-5.2,11.7-5.7c1.9-.6,5.8-.6,6.6,4,1,6,6.9,16.5,13.6,17,4.3.3,3.9,1.3,3.9,6.7v9.8l-29.7,4.9c-3.1.5-6-1.9-6-5.1v-31.7Z"/>
    <path class="st1" d="M140.3,272.4c-1.6,0-3.2-.6-4.5-1.7-1.6-1.3-2.4-3.2-2.4-5.3v-32.7l1-.5c1.7-.9,10.1-5.3,12-5.8.8-.2,3.5-.9,5.8.6,1.1.7,2.5,2.1,3,4.8,1,5.8,6.6,15.1,12,15.6,5.3.4,5.5,2.6,5.5,7.1,0,.4,0,.9,0,1.4v11.4l-31.2,5.1c-.4,0-.7,0-1.1,0ZM136.9,234.8v30.6c0,1,.4,1.9,1.2,2.6.8.6,1.8.9,2.7.8l28.2-4.6v-8.3c0-.5,0-1,0-1.4,0-1.3,0-2.8-.2-3.1,0,0-.4-.3-2.1-.4-8-.6-14.1-12.4-15.2-18.5-.2-1.2-.7-2-1.3-2.4-.9-.6-2.2-.5-3-.2-1.1.3-6.6,3.1-10.4,5.1Z"/>
  </g>
  <g>
    <path class="st4" d="M340.5,286.6s-121.9,21.2-122,21.2l-60.6,10.5c-2,.7-1.7,1.9-1.7,2.6v36c0,.8,1.2,1.4,2.6,1.2l60.6-10.5c.1,0,.2,0,.4,0,0,0,0,0,0,0l60.6-10.5c.1,0,.2,0,.4,0,0,0,0,0,0,0l60.6-10.5c1-.2,1.7-.7,1.7-1.4v-36.7c0-.8-1.2-1.9-2.6-1.7Z"/>
    <path class="st1" d="M158.1,359.9c-1,0-2-.3-2.7-.9-.7-.5-1-1.3-1-2.1v-36s0,0,0-.1c-.1-2,.9-3.4,2.9-4.1h.1s.1,0,.1,0l60.6-10.5c0,0,117-20.4,122-21.2h0c1.2-.2,2.5.1,3.4.9.8.7,1.3,1.6,1.3,2.5v36.7c0,1.5-1.3,2.8-3.2,3.1l-60.6,10.5c-.1,0-.3,0-.4,0l-60.6,10.5c-.1,0-.3,0-.4,0l-60.6,10.5c-.3,0-.6,0-.9,0ZM157.9,356.3c.1,0,.3,0,.5,0l60.6-10.5c0,0,.1,0,.2,0h.3c0,0,60.6-10.6,60.6-10.6,0,0,.1,0,.2,0h.3c0,0,60.6-10.6,60.6-10.6,0,0,.2,0,.2,0v-36c-.1,0-.3-.2-.5-.2h0c-1.2.2-121.8,21.2-122,21.2l-60.5,10.5c-.2,0-.4.2-.4.2,0,0,0,.2,0,.3,0,.1,0,.2,0,.3v35.4ZM219.9,349.2h0s0,0,0,0ZM219.5,345.7s0,0,0,0h0ZM219.5,345.7s0,0,0,0h0Z"/>
  </g>
  <g>
    <path class="st8" d="M354.5,296.7l-123,21.1c0,0-.1,0-.2,0,0,0-.2,0-.2,0l-60.6,10.5c-2,.7-1.7,1.9-1.7,2.6v36c0,.8,3.3,3.1,3.3,3.1l59.9-12.4c.1,0,.2,0,.4,0,0,0,0,0,0,0l60.6-10.5c.1,0,.2,0,.4,0,0,0,0,0,0,0l60.6-10.5c1-.2,1.7-.7,1.7-1.4l2.1-35.7c0-.8-1.3-3-3.3-2.7Z"/>
    <path class="st1" d="M172,370.6h-.2c-1.6-1.2-3.5-2.7-3.5-3.6v-36c0,0,0-.1,0-.2,0-.7-.1-2.1,2.1-2.8h0s60.6-10.5,60.6-10.5c0,0,.1,0,.2,0,0,0,0,0,.1,0h0s123-21.2,123-21.2c.9-.1,1.8.1,2.5.8.9.7,1.3,1.8,1.3,2.4l-2.1,35.7c0,.9-.9,1.6-2.1,1.8l-60.6,10.5c-.1,0-.3,0-.4,0l-60.6,10.5c-.1,0-.3,0-.4,0l-60.1,12.5ZM170.7,328.9c-1.4.5-1.4,1.2-1.3,1.8,0,0,0,.2,0,.3v36c0,.3,1.4,1.5,2.9,2.5l59.7-12.4c.1,0,.2,0,.3,0h.1s60.6-10.5,60.6-10.5c.1,0,.2,0,.3,0h.1s60.6-10.5,60.6-10.5c.8-.1,1.3-.5,1.3-.9l2.1-35.7c0-.2-.3-1-1-1.6-.5-.5-1.1-.6-1.7-.6l-122.9,21.1s0,0,0,0h-.1c0,0,0,0,0,0,0,0-.1,0-.2,0l-60.6,10.5Z"/>
  </g>
  <g class="st7">
    <g>
      <path class="st4" d="M150.1,249.4c-3.5,0-6.9,2.9-7.5,6.7-.6,3.7,1.8,6.8,5.3,6.9,3.5,0,6.9-2.9,7.5-6.7.6-3.7-1.8-6.8-5.3-6.9Z"/>
      <path class="st1" d="M150.4,247.8c-4.4,0-8.5,3.6-9.3,8.2-.7,4.6,2.2,8.4,6.6,8.5,4.4,0,8.5-3.6,9.3-8.2.7-4.6-2.2-8.4-6.6-8.5ZM155.4,256.3c-.6,3.7-4,6.7-7.5,6.7-3.5,0-5.9-3.2-5.3-6.9.6-3.7,4-6.7,7.5-6.7,3.5,0,5.9,3.2,5.3,6.9Z"/>
    </g>
  </g>
  <g>
    <path class="st6" d="M355.9,298.9l-60.6,10.5c0,0-.1,0-.2,0,0,0-.2,0-.2,0l-121.6,21.1c-2,.7-1.7,1.9-1.7,2.6v36c0,.8,1.2,1.4,2.6,1.2l60.6-10.5c.1,0,.2,0,.4,0,0,0,0,0,0,0l60.6-10.5c.1,0,.2,0,.4,0,0,0,0,0,0,0l60.6-10.5c1-.2,1.7-.7,1.7-1.4v-36.7c0-.8-1.2-1.9-2.6-1.7Z"/>
    <path class="st1" d="M173.5,371.3c-.8,0-1.6-.2-2.2-.7-.4-.4-.7-.9-.7-1.4v-36c0,0,0-.1,0-.2,0-.7-.1-2.4,2.3-3.2h.1s121.6-21.2,121.6-21.2c0,0,.1,0,.2,0,0,0,0,0,0,0h.1s60.6-10.6,60.6-10.6c.9-.2,1.9.1,2.7.7.6.5.9,1.1.9,1.8v36.7c0,1.1-1,2-2.4,2.2l-60.6,10.5c-.1,0-.3,0-.4,0l-60.6,10.5c-.1,0-.3,0-.4,0l-60.6,10.5c-.2,0-.5,0-.7,0ZM173.5,331.5c-1.1.4-1.1.9-1.1,1.4,0,.1,0,.2,0,.3v36c0,.1.7.5,1.6.3l60.6-10.5c0,0,.2,0,.3,0h.2s60.6-10.5,60.6-10.5c0,0,.2,0,.3,0h.2s60.6-10.5,60.6-10.5c.6-.1,1-.4,1-.5v-36.7c0,0,0-.3-.3-.5-.4-.3-.8-.4-1.2-.3l-60.5,10.5s0,0,0,0h-.2c0,0-.1,0-.1,0,0,0,0,0-.1,0l-121.5,21.1Z"/>
  </g>
  <rect class="st1" x="170.3" y="328.5" width=".7" height="3.6" transform="translate(-193 252.9) rotate(-50.7)"/>
  <g>
    <path class="st5" d="M223.7,257.1l24.8-4.5-14.8-26.3-25,4.6,13.2,26.5,1.7-.2ZM276.5,247.5l27.9-5.1-14.8-26.3-27.9,5.1,14.8,26.3h0ZM332.3,237.3l28.1-4.6-15-26.8-27.9,5.1,14.8,26.3h0Z"/>
    <path class="st1" d="M221,259.2l-14.8-29.7,28.5-5.2,16.6,29.6-27.4,5-3,.4ZM211.4,232.1l11.6,23.3h.4c0,0,22.3-4.1,22.3-4.1l-13-23-21.4,3.9ZM275.5,249.4l-16.7-29.6,31.6-5.8,16.6,29.6-31.6,5.8ZM264.4,222.5l13,23,24.2-4.4-13-23-24.3,4.4ZM331.4,239.2l-16.6-29.5,31.6-5.8,16.8,30.2-31.8,5.2ZM320.2,212.3l13,23.1,24.4-4-13.1-23.5-24.2,4.4Z"/>
  </g>
  <g>
    <path class="st5" d="M176,244.5l25-12.1-20.8-20.9-25,12.1,20.8,20.9h0ZM220,224.1l25.1-12.1-20.9-21-25.1,12.1,20.9,21h0ZM269.1,199.8l24.2-11.7-20.1-20.3-24.2,11.7,20.1,20.2h0ZM316.9,178l25.1-11.5-20.9-21.2-24.8,12,20.6,20.8h0Z"/>
    <path class="st1" d="M175.7,246.7l-23.4-23.6,28.4-13.7,23.4,23.6-28.3,13.7ZM158.2,224.1l18.2,18.3,21.6-10.4-18.2-18.3-21.6,10.4ZM219.6,226.3l-23.5-23.6,28.4-13.7,23.5,23.6-28.4,13.7ZM202.1,203.7l18.2,18.3,21.7-10.5-18.2-18.3-21.7,10.5ZM268.7,201.9l-22.8-22.9,27.5-13.3,22.7,22.9-27.5,13.3ZM252,180.1l17.5,17.6,20.8-10-17.5-17.6-20.8,10.1ZM316.5,180.2l-23.3-23.4,28.2-13.6,23.6,23.9-28.5,13.1ZM299.2,157.8l18,18.1,21.7-9.9-18.3-18.5-21.4,10.4Z"/>
  </g>
  <g class="st0">
    <g>
      <g>
        <rect class="st3" x="121.9" y="220.7" width="2.1" height="2.7" transform="translate(-120.9 151.8) rotate(-45)"/>
        <rect class="st3" x="118.5" y="217.2" width="2.1" height="2.7" transform="translate(-119.5 148.4) rotate(-45)"/>
        <rect class="st3" x="115.1" y="213.8" width="2.1" height="2.7" transform="translate(-118.1 145) rotate(-45)"/>
      </g>
      <g>
        <rect class="st3" x="132.2" y="230.9" width="2.1" height="2.7" transform="translate(-125.2 162) rotate(-45)"/>
        <rect class="st3" x="128.7" y="227.5" width="2.1" height="2.7" transform="translate(-123.8 158.6) rotate(-45)"/>
        <rect class="st3" x="125.3" y="224.1" width="2.1" height="2.7" transform="translate(-122.4 155.2) rotate(-45)"/>
      </g>
    </g>
  </g>
  <g class="st0">
    <g>
      <g>
        <rect class="st3" x="331.5" y="122.1" width="2.1" height="2.7" transform="translate(10 271.1) rotate(-45)"/>
        <rect class="st3" x="328.1" y="118.7" width="2.1" height="2.7" transform="translate(11.4 267.7) rotate(-45)"/>
        <rect class="st3" x="324.7" y="115.3" width="2.1" height="2.7" transform="translate(12.8 264.3) rotate(-45)"/>
      </g>
      <g>
        <rect class="st3" x="341.8" y="132.4" width="2.1" height="2.7" transform="translate(5.7 281.4) rotate(-45)"/>
        <rect class="st3" x="338.4" y="129" width="2.1" height="2.7" transform="translate(7.2 278) rotate(-45)"/>
        <rect class="st3" x="335" y="125.6" width="2.1" height="2.7" transform="translate(8.6 274.6) rotate(-45)"/>
      </g>
    </g>
  </g>
  <g class="st0">
    <g>
      <g>
        <rect class="st3" x="348.5" y="191.4" width="2.1" height="2.7" transform="translate(-34 303.4) rotate(-45)"/>
        <rect class="st3" x="345.1" y="188" width="2.1" height="2.7" transform="translate(-32.6 300) rotate(-45)"/>
        <rect class="st3" x="341.7" y="184.6" width="2.1" height="2.7" transform="translate(-31.2 296.5) rotate(-45)"/>
      </g>
      <g>
        <rect class="st3" x="358.7" y="201.6" width="2.1" height="2.7" transform="translate(-38.2 313.6) rotate(-45)"/>
        <rect class="st3" x="355.3" y="198.2" width="2.1" height="2.7" transform="translate(-36.8 310.2) rotate(-45)"/>
        <rect class="st3" x="351.9" y="194.8" width="2.1" height="2.7" transform="translate(-35.4 306.8) rotate(-45)"/>
      </g>
    </g>
  </g>
  <g class="st0">
    <g>
      <g>
        <rect class="st3" x="126.2" y="258.3" width="2.1" height="2.7" transform="translate(-146.3 165.8) rotate(-45)"/>
        <rect class="st3" x="122.8" y="254.9" width="2.1" height="2.7" transform="translate(-144.9 162.4) rotate(-45)"/>
        <rect class="st3" x="119.4" y="251.5" width="2.1" height="2.7" transform="translate(-143.5 159) rotate(-45)"/>
      </g>
      <g>
        <rect class="st3" x="136.4" y="268.6" width="2.1" height="2.7" transform="translate(-150.5 176.1) rotate(-45)"/>
        <rect class="st3" x="133" y="265.2" width="2.1" height="2.7" transform="translate(-149.1 172.7) rotate(-45)"/>
        <rect class="st3" x="129.6" y="261.7" width="2.1" height="2.7" transform="translate(-147.7 169.3) rotate(-45)"/>
      </g>
    </g>
  </g>
  <g class="st0">
    <g>
      <g>
        <rect class="st3" x="149.6" y="256.4" width="1" height="1.8" transform="translate(-129.7 155.1) rotate(-39.7)"/>
        <rect class="st3" x="147.5" y="253.9" width="1" height="1.8" transform="translate(-128.6 153.2) rotate(-39.7)"/>
        <rect class="st3" x="145.4" y="251.4" width="1" height="1.8" transform="translate(-127.4 151.2) rotate(-39.7)"/>
      </g>
      <g>
        <rect class="st3" x="156" y="264.1" width="1" height="1.8" transform="translate(-133.1 160.9) rotate(-39.7)"/>
        <rect class="st3" x="153.9" y="261.5" width="1" height="1.8" transform="translate(-132 159) rotate(-39.7)"/>
        <rect class="st3" x="151.8" y="259" width="1" height="1.8" transform="translate(-130.9 157) rotate(-39.7)"/>
      </g>
    </g>
  </g>
  <g>
    <g class="st7">
      <g>
        <path class="st8" d="M157.7,255.2c-4.4,0-8.6,3.6-9.3,8.3-.7,4.6,2.2,8.5,6.6,8.6,4.4,0,8.6-3.6,9.3-8.3.7-4.6-2.2-8.5-6.6-8.6Z"/>
        <path class="st1" d="M157.8,254.5c-4.8,0-9.3,3.9-10.1,8.9s2.4,9.2,7.2,9.2c4.8,0,9.3-3.9,10.1-8.9.8-5-2.4-9.2-7.2-9.2ZM164.3,263.7c-.7,4.6-4.9,8.4-9.3,8.3-4.4,0-7.4-3.9-6.6-8.6.7-4.6,4.9-8.4,9.3-8.3,4.4,0,7.4,3.9,6.6,8.6Z"/>
      </g>
    </g>
    <g class="st7">
      <g>
        <path class="st6" d="M159,256.2c-4.4,0-8.6,3.6-9.3,8.3-.7,4.6,2.2,8.5,6.6,8.6,4.4,0,8.6-3.6,9.3-8.3.7-4.6-2.2-8.5-6.6-8.6Z"/>
        <path class="st1" d="M159.1,255.5c-4.8,0-9.3,3.9-10.1,8.9-.8,5,2.4,9.2,7.2,9.2s9.3-3.9,10.1-8.9c.8-5-2.4-9.2-7.2-9.2ZM165.6,264.7c-.7,4.6-4.9,8.4-9.3,8.3-4.4,0-7.4-3.9-6.6-8.6.7-4.6,4.9-8.4,9.3-8.3,4.4,0,7.4,3.9,6.6,8.6Z"/>
      </g>
    </g>
  </g>
  <g class="st0">
    <g>
      <g>
        <rect class="st3" x="123.9" y="394.7" width="2.1" height="2.7" transform="translate(-243.3 204.1) rotate(-45)"/>
        <rect class="st3" x="120.5" y="391.3" width="2.1" height="2.7" transform="translate(-241.9 200.7) rotate(-45)"/>
        <rect class="st3" x="117.1" y="387.9" width="2.1" height="2.7" transform="translate(-240.5 197.3) rotate(-45)"/>
      </g>
      <g>
        <rect class="st3" x="134.2" y="404.9" width="2.1" height="2.7" transform="translate(-247.6 214.3) rotate(-45)"/>
        <rect class="st3" x="130.8" y="401.5" width="2.1" height="2.7" transform="translate(-246.2 211) rotate(-45)"/>
        <rect class="st3" x="127.4" y="398.1" width="2.1" height="2.7" transform="translate(-244.8 207.6) rotate(-45)"/>
      </g>
    </g>
  </g>
</svg>