<svg xmlns="http://www.w3.org/2000/svg" fill="none" viewBox="0 0 96 96" id="Telegram--Streamline-Svg-Logos" height="24" width="24"><desc>Telegram Streamline Icon: https://streamlinehq.com</desc><path fill="url(#a)" d="M48 1C35.5377 1 23.5747 5.95483 14.7695 14.7659 5.95703 23.5769 1 35.5399 1 48c0 12.4601 4.95703 24.4231 13.7695 33.2341C23.5747 90.0452 35.5377 95 48 95c12.4623 0 24.4253-4.9548 33.2305-13.7659C90.043 72.4231 95 60.4601 95 48c0-12.4601-4.957-24.4231-13.7695-33.2341C72.4253 5.95483 60.4623 1 48 1Z"></path><path fill="#ffffff" d="M22.2748 47.5041c13.7034-5.969 22.8391-9.9045 27.4069-11.8058 13.0572-5.4292 15.767-6.3722 17.5368-6.4041.3893-.0063 1.2558.0899 1.8213.5474.47.3856.6022.907.6683 1.2727.0587.3657.1395 1.1993.0734 1.8499-.705 7.4319-3.7673 25.4667-5.3242 33.7908-.6536 3.5222-1.9534 4.7031-3.2092 4.8184-2.7319.2511-4.8028-1.8036-7.4466-3.5362-4.1345-2.712-6.4698-4.3996-10.4869-7.0456-4.6412-3.0579-1.6303-4.7389 1.0135-7.4855.6903-.7189 12.7194-11.6574 12.947-12.6496.0294-.1241.0588-.5867-.2203-.8305-.2717-.2446-.6756-.1609-.9694-.0948-.4186.094-7.0206 4.4621-19.8281 13.1035-1.8727 1.2881-3.5691 1.916-5.0966 1.8829-1.6743-.036-4.9056-.9488-7.307-1.7287-2.9375-.9569-5.2801-1.4629-5.0745-3.088.1028-.846 1.2704-1.7119 3.4956-2.5968Z"></path><defs><linearGradient id="a" x1="4701" x2="4701" y1="1" y2="9401" gradientUnits="userSpaceOnUse"><stop stop-color="#2aabee"></stop><stop offset="1" stop-color="#229ed9"></stop></linearGradient></defs></svg>