<svg xmlns="http://www.w3.org/2000/svg" fill="none" viewBox="0 0 24 24" id="Youtube-Icon--Streamline-Svg-Logos" height="24" width="24"><desc>Youtube Icon Streamline Icon: https://streamlinehq.com</desc><path fill="#ff0000" d="M23.2314 6.3482c-0.2743 -1.0137 -1.066175 -1.80555 -2.079875 -2.07985 -1.823625 -0.49735 -9.163425 -0.49735 -9.163425 -0.49735s-7.339775 0.015075 -9.1634 0.512425c-1.0137075 0.2743 -1.805565 1.06615 -2.0798675 2.07985 -0.551613 3.24035 -0.7656271 8.17775 0.0150725 11.2885 0.2743025 1.0137 1.06616 1.80555 2.079845 2.07985 1.82365 0.49735 9.163425 0.49735 9.163425 0.49735s7.3398 0 9.163425 -0.49735c1.0137 -0.2743 1.80555 -1.06615 2.079875 -2.07985 0.58175 -3.244875 0.7611 -8.17925 -0.015075 -11.303575Z" stroke-width="0.25"></path><path fill="#ffffff" d="m9.652225 15.526575 6.08885 -3.526725 -6.08885 -3.5267v7.053425Z" stroke-width="0.25"></path></svg>